<?xml version="1.0" encoding="UTF-8"?>
<svg id="Layer_2" data-name="Layer 2" xmlns="http://www.w3.org/2000/svg" viewBox="0 0 400 400">
  <defs>
    <style>
      .cls-1 {
        fill: #031a2e;
      }

      .cls-2 {
        fill: #010a1f;
      }

      .cls-3 {
        fill: #020f27;
      }

      .cls-4 {
        fill: #be2140;
      }

      .cls-5 {
        fill: #e1dcc8;
      }

      .cls-6 {
        fill: #3a4851;
      }
    </style>
  </defs>
  <g id="Layer_1-2" data-name="Layer 1">
    <g>
      <path class="cls-2" d="M173.81,399.89h-4.99c.4-4.57-3.4-8.67-5.58-9.92-6.85-3.95-9.62-10.66-14.06-16.21-1.19-1.48-1.29-2.76,.58-3.57,1.61-.69,1.95-1.59,1.12-3.09-.81-1.46-1.94-2.25-3.65-1.96-3.51,.58-7.85,9.33-6.47,12.64,.66,1.58,3.67,2.83,2.07,4.4-1.47,1.44-4.01-.33-6.03-.87-1.52-.4-2.4-1.65-3.31-2.88-1.27-1.73-3.19-1.21-3.56,.28-1.42,5.74-5.43,7.13-10.56,7.21-.75,.01-1.66,.45-2.19,1-2.89,2.95-3.98,1.37-4.24-1.71-.32-3.78-2.37-6.28-5.98-5.54-3.53,.72-6.74,2.38-9.97-.54-.22-.2-1.19,0-1.37,.28-2.81,4.47-5.36,2.18-8.11-.12-1.11-.93-2.59-1.4-4.22-.95-3.19,.88-3.72-.3-2.25-3.01,.8-1.47,1.81-3.16-.64-4.03-1.27-.45-9.22,5.05-9.92,6.72,.67,.71,1.55,.17,2.28,.34,2.09,.47,4.15,1.84,3.57,3.95-.7,2.52-2.91,1.18-4.59,.52-2.61-1.02-5.14-2.41-8.14-1.37-.82,.29-1.71-.1-1.96-1.05-.2-.75,.37-1.16,1.01-1.47,.59-.29,1.28-.53,1.71-.99,1.05-1.11,3.31-2.18,1.68-3.97-1.89-2.07-2.59,.18-3.55,1.51-1.09,1.51-2.58,1.95-3.31-.21-1.35-4-2.33-3.72-4.59-.4-1.39,2.03-3.99,3.85-6.37,4.4-2.51,.59-2.1-2.83-3.2-4.33-1.57-2.16-2.42-1.72-3.33,.51-.55,1.34-.5,3.87-3.01,2.96-2.15-.78-.76-2.8-1.03-4.28-.64-3.49-.12-8.12-6.22-7.81,1.36-1.77,4.56-1.81,3.24-4.24-1.34-2.48-3.4-4.57-5.22-6.77-.12-.15-.99,.12-1.35,.39-2.36,1.79-4.24,3.74-.69,6.15,1.12,.76,1.89,1.57,1.03,2.8-1.09,1.56-2.24,.74-3.35-.18-2.5-2.06-4.92-4.19-6.59-7.28-.61,.65-1.17,.96-1.2,1.32-.21,2.75-1.72,4.15-4.28,3.26-3.24-1.12-.25-2.47,.22-3.66,.72-1.81-.49-1.92-1.69-2.14-3.58-.65-7.54-2.76-9.58,2.56-.13,.33-1.22,.3-1.86,.43,0-29.62,0-59.23,0-88.85,2.63,3.01,4.98,5.32,7.71-.2,.89-1.79,3.79-3.04,4.26,.99,.43,3.69,3.46,3.5,5.65,3.44,3.09-.09,5.91-.6,7.86,2.61,.55,.91,1.62,.81,2.46-.24,2.22-2.77,4.47-1.51,6.99-.2,3.18,1.66,6.01,4.75,10.4,2.21,1.75-1.01,4.38-7.79,6.58-.11,.03,.09,.34,.19,.45,.14,2.81-1.38,6.7,1.43,8.93-2.42,.73-1.26,2.05-2.35,3.76-1.93,1.98,.49,2.79-.22,2.85-2.17,.03-1.14-.03-2.57,1.51-2.73,1.67-.17,2.13,1.25,2.6,2.53,.53,1.42,1.08,2.9,2.96,2.9,2.16,0,2.63-1.59,3.02-3.31,.35-1.54,1.18-2.72,2.88-3.05,6.06-1.2,7.63-2.88,7.62-8.8,0-1.67,.14-2.88,1.94-2.4,8.23,2.21,12.42-4.18,17.51-8.33,2.17-1.77,2.94-2.45,4.02,.63,1.01,2.89,2.9,3.28,4.56,.57,1.08-1.78,2.3-2.59,3.99-1.49,2.45,1.58,3.01,.44,3.64-1.75,.38-1.31,1.09-2.79,3.27-3.21-1.25,5.76,1.54,5.32,5.23,3.63,.65-.3,1.56,.62,2.5-.24-.17-1.12-2.01-2.49-.87-3.43,3.3-2.74,3.47-6.96,5.4-10.32,.5-.88,1.08-1.96,2.13-1.9,6.4,.4,3.85-3.63,3.08-6.44-.44-1.6-1.85-3.28,.35-4.19,2.03-.85,2.15,1.39,2.83,2.61,3.69,6.68,5.68,7.39,12.49,4.46,.77-.33,1.59-.92,2.26-.18,.95,1.05-.12,1.79-.72,2.49-2.34,2.73-5.96,3.51-8.69,5.68-1.37,1.09-2.46,4.11-4.68,2.13-1.97-1.76,1.46-2.89,1.47-4.62,0-.28-.27-.56-.41-.84-4.24,1.29-6.44,4.44-4.22,6.22,2.64,2.1,1.02,3.43,1.03,5.64,.02,6.28-2.66,6.16-7,5.16-.86-.2-1.81-.09-2.05,.87-.38,1.52,.91,1.44,1.85,1.58,.82,.13,1.69,.06,2.46,.3,3.97,1.23,6.96,7.77,4.56,9.9-1.22,1.08-3.28,2.15-1.98,3.91,1.26,1.72,3.44,1.06,4.85-.28,2.29-2.17,4.22-1.53,4.89,1.03,1.52,5.82,5.5,10.09,8.52,14.97,.08,.13,.04,.33,.1,.49,.95,2.72,2.36,4.51,5.5,2.62,.94-.56,1.86-.8,2.66,.15,.76,.9,.58,1.82-.09,2.71-.99,1.32-1.95,2.65-1.42,4.4,1,.49,1.76,.09,2.33-.5,1.35-1.37,1.51-4.11,4.77-3.02,3.02,1.01,3.66,3.34,3.94,5.74,.33,2.72,1.36,4.82,3.65,6.14,2.82,1.62,2.48,3.48,.8,5.71-1.74-.28-2.35-2.5-4.24-2.33,.01-2.85-1.69-3.32-3.97-2.73-1.33,.35-2.3,1.28-2.7,2.66-.25,.87-.02,1.72,.71,2.21,1.6,1.08,2.34-.34,3.22-1.26,.76-.79,1.75-.83,2.74-.88-.72,2.27-.77,4.27,.47,6.61,1.37,2.6,1.94,5.51-1.17,8.02-2.1,1.71-1.61,4.31-.52,6.85,2.42-1.61,5.35-4.58,5.95,.36,.56,4.6,2.91,5.54,6.7,6.38,2.76,.61,6.38,1.43,4.79,6.23-.77,2.34,1.32,4.07,3.33,4.97,1.82,.81,3.77,1.01,5.4-.93,1.78-2.11,4.23-3.51,6.11-5.66,1.79-2.05,3.17-2.64,.23-5.11-1.95-1.64-3.57-5.3-2.24-7.88,1.18-2.29,2.31-6.22,6.21-5.46,3.37,.66,7.67,.62,7.82,5.93,.05,1.71,1.58,3.16,3.05,2.16,2.41-1.63,4.77-.65,7.16-.88,3.87-.37,7.09-1.35,4.57-6.43-.41-.82-.72-2.26-.3-2.82,3.94-5.2,2.91-11.43,3.82-17.25,.52-3.33-.38-5.56-4.01-6.09-3.15-.46-5.57-1.25-2.33-4.84,.7-.77,.95-1.83-.07-2.62-.72-.56-1.88-.6-2.26,.09-2.15,3.92-5.27,1.37-7.97,1.27-1.56-.06-3.51-1.1-3.08-2.55,.61-2.07,2.1-4.07,3.68-5.6,1.08-1.04,2.41,.25,3.38,1.21,.78,.77,.85,2.55,2.3,2.27,1.54-.3,1.33-2.04,1.88-3.19,1.98-4.15,3.09-8.96,9.31-9.35,2.12-.13,4.95-2.87,3.84-5.34-1.42-3.16-.4-5.51,.75-7.99,1.08-2.33,.94-4.32-.04-6.65-3.75-8.85-9.53-16.6-13.14-25.58-5.26-13.09-11.18-25.99-19.54-37.44-4.41-6.03-9.44-11.53-12.01-18.74-2.62-7.36-7.69-14.08-5.22-22.69,.47-1.65,.86-4.14-1.88-5,0-1.33-.01-2.66-.02-3.98,.4-3.44-1.67-6.06-2.95-8.94,.48-4.21-1.22-7.22-5.01-9.08-.84-8.95-7.38-17.2-14.99-18.92-4.18-1.03-8.3-2.41-12.72-2.02-2.2,.2-3.79-.88-5.18-2.46-2.86-3.24-5.98-6.2-9.46-8.76-1.1-.8-2.2-1.66-2.39-3.06-1.14-8.46-3.11-16.73,.68-25.33,4.53-10.28,10.87-15.26,21.22-14.2,3.08,.32,6,1.9,9.08,2.41,11.05,1.83,21.6,4.87,31.21,10.92,2.87,1.8,6.72,3.27,10.01,2.25,9.83-3.05,19.82-1.06,29.7-1.7,1.65-.11,3.52,.22,4.91-.44,6.22-2.98,13.01-3.85,19.53-5.65,5.47-1.51,10.92-1.81,16.58-.13,5.74,1.71,11.43,.87,16.43-2.91,1.04-.78,2.33-1.23,3.53-1.8,10.27-4.83,21.85-5,32.34-9.06,9.13-3.53,18.92-1.59,28.4-3.48,10.79-2.15,21.82-3.66,32.74-5.47v16.97c-5.29,1.08-10.32,2.59-12.96,7.97-3.57,2.38-6.85-.83-10.46-.55-5.09,.4-7.47,5.07-12.12,6.09-5.09,1.11-10.71,1.43-14.32,6.44-1.14,1.58-3.58,2.58-5.46,.09-2.95-3.9-7.1-4.43-11.56-4.08-5.95-.5-11.14,3.33-17.07,3.01-3.99-.21-6.7,1.22-7.35,5.63-.31,2.12-1.09,4.36-3.98,4.29-2.66-.06-4.79,1.09-6.86,2.58-2.43,1.76-4.45,1.71-6.18-1.19-1.36-2.29-3.71-3.36-6.36-3.29-4.63,.12-9.27,.26-13.9,.48-9.02,.43-13.68,4.87-15.31,13.31-.63,.37-1.27,.75-1.9,1.12-2.74,.17-3.79-1.37-4.16-3.86-.71-4.85-3.64-6.82-8.42-6.1-3.27,.49-6.53,1.04-9.78,1.62-2.81,.49-5.61,.76-8.29-.52-9.27-4.42-18.49-1.1-27.66,.33-2.37,.37-5.14,2.05-4.16,5.14,.94,2.96,4,2.71,6.41,2.16,5.94-1.37,11.52-2,15.24,4.28-.11,1.68,.4,3.08,1.88,4.02-.02,.3-.05,.6-.08,.9-3.96,2.81-1.37,5.81-.04,8.55,2.55,5.25,7.87,8.78,9.33,14.75,0,1.22,0,2.44,0,3.65-.1,3.33,.36,3.71,3.98,4.05,3.98,.37,7.85-2.1,11.87-.42,1.35,.49,2.7,.99,4.06,1.48-.39,2.45,1.17,3.48,3.02,4.53,3.83,2.15,8.02,2.94,12.25,3.73,6.37,1.18,10.25-1.52,11.48-8.15,2.7-.69,5.39-.45,8.08,.07-1.31,4.71-2.76,10.21,2.31,12.86,4.14,2.17,8.19,4.9,12.73,6.22,2.49,.73,5.11,2.76,7.91,.63,.73-.03,1.46-.07,2.19-.1,.3,0,.57,.11,.8,.31,1.19,1.75,2.8,3.35,4.93,2.62,4.22-1.43,6.09,1.5,8.2,3.95,1.29,1.5,2.15,3.34,4.05,4.28,.98,.49,2.52,.87,2.16,2.32-.39,1.59-1.91,1.41-3.29,1.44-5.12,.14-9.21,2.15-12.79,6.04-5.23,5.68-8.21,12.87-13.26,18.62-.83,.94-1.37,2.52-3.07,2.02-1.81-.54-1.83-2.15-1.89-3.67-.12-3.17,.29-6.16,1.44-9.23,1.55-4.12,4.81-7.08,6.45-11.16,1.64-4.08,0-5.91-3.3-7.35-5.81-2.54-11.72-3.89-18.24-3.29-4.3,.39-7.18,2.25-8.43,5.78-1.39,3.93-3.62,7.45-4.85,11.39-1.12,3.59-3.21,6.84-3.08,10.87,.26,8.55,4.67,15.45,8.75,22.39,3.5,5.94,6.78,6.08,12,1.42,1.18-1.05,2.22-3.2,4-2.27,1.91,1,.58,3.31,.08,4.46-4.04,9.21-1.48,15.69,7.53,19.85,.59,.27,1.09,.75,1.63,1.13,.05,2.16,.01,4.31-1.12,6.26-1.22,2.09-.99,4.32,.23,6.13,1.69,2.5,2.62,5.24,3.72,7.99,1.66,4.14,5.91,4.89,9.3,1.88,2.75-2.45,4.4-5.45,3.31-9.23-1.21-4.2,1.34-5.81,4.58-6.76,1.54-.45,3.28-.21,4.93-.28,0,0,0,0,0,0-.11,1.73,.6,3.24,1.32,4.74,.73,1.54,.73,3.19-.92,3.88-8.77,3.68-9.91,12.37-12.89,19.72-2.89,7.14,1.22,18.26,6.49,20.57h0c.2,.96,.15,2.09,.64,2.86,4.09,6.36,8.24,12.56,8.65,20.59,.16,3.09,4.2,3.45,6.47,.73,1.8-2.16,4.1-4.24,4.96-6.76,1.36-4.02,6.19-5.78,6.23-10.42,2.94-7.72,5.73-15.51,10.01-22.64,1.12-1.86,2.2-3.85,1.49-6.09-1.62-5.1,1.07-7.96,5.18-9.86,3.57-1.65,6.69-3.55,8.36-7.34,.65-1.47,1.81-3.3,3.73-2.46,1.97,.86,1.11,2.84,.64,4.4-1.88,6.18-.94,9.5,4.79,12.02,8.31,3.65,16.67,7.32,25.7,9.02v30.95c-1.74,.31-2.68,1.61-2.74,3.12-.22,5.04-2.55,9.42-3.98,14.09-2.37,7.75,.27,13.21,6.72,14.74v10.98c-2.35,.26-3.92-.85-5.65-2.41-3.15-2.84-5.89-1.99-7.67,1.93-.96,2.12-2.27,4.01-3.5,5.98-4.71,7.57-9.43,15.17-11.78,23.92-1.01,3.76,.76,5.89,4.05,7.42,5.66,2.64,12.18,1,17.81,3.77,1.09,.54,2.13-.63,2.97-1.44,1.08-1.05,2.12-2.13,3.76-2.24,0,6.16-.12,12.32,.07,18.47,.07,2.15-.41,2.61-2.56,2.56-7.82-.17-15.64-.07-23.46-.07,0-2.48-.03-4.95,0-7.43,.03-2.53-.61-4.68-3.36-5.33-2.86-.68-5.16,.13-6.66,2.89-1.69,3.1-2.53,6.42-2.95,9.88h-121.79c-1.63-3.88-4.74-5.96-8.74-6.07-4.4-.12-7.91-5.02-12.81-2.22-.34,.19-1.64-.57-1.96-1.18-1.53-2.9-4.39-2.83-6.94-3.88-3.06-1.26-6.65,.42-9.23-2.24-3.15-3.25-8.2-3.7-11.24-.65-1.63,1.64-2.65,2.32-4.99,1.12-2.23-1.14-9.58,1.81-9.32,3.43,.64,3.92-1.15,7.85,.33,11.69Zm170.71-57.9c.4,3.41,.12,7.11,3.97,9v1.99c-1.17,3.13,.78,5.47,2.02,7.99v1.98c.38,.9,.61,1.9,1.16,2.68,1.75,2.52,3.11,6.04,6.67,5.94,3.79-.11,5.41-3.5,6.6-6.62,2.84-7.51,5.58-15.06,8.17-22.66,.73-2.15,.87-4.52,1.22-6.79,.24-1.57,.08-3.02-1.84-3.49-.01-2.26,.06-4.57-3.01-4.99-.16-1.18-.82-1.85-2.01-1.98-.33,0-.66,0-.98-.01-.26-3.21-2.41-7.27,3.31-7.9,1.62-.18,3.32-.05,4.93,.23,7.22,1.26,7.98,.44,8.82-7.02,1.03-9.21,.58-18.85,7.02-26.72,1.25-1.53,1.44-3.7-.13-5.5-.8-2.75-3.28-3.65-5.47-4.68-4.64-2.17-9.49-3.9-14.08-6.17-6.02-2.98-10.75-.88-12.4,5.85-1.75,.29-1.99,1.56-1.98,3.01l-1.02,3.98c-1.17,.17-1.83,.84-1.97,2.02,0,.66-.02,1.32-.03,1.98-1.13,.28-2.18,.59-.98,2.01,0,.66-.01,1.32-.02,1.99-3.19,2.52-5.15,8.91-3.98,12.99,0,.67,0,1.33,0,2-2.03,2.36,.54,3.42,1.34,5.04,.82,1.67,3.39,3.09,1.9,5.14-1.14,1.57-3.37,.78-5.14,.32-2.41-.62-4.27-.17-5.08,2.47-.94,.79-1,1.88-1.01,2.99-3.53,2.19-4.71,6.97-2.97,11.99,.09,1.37,.75,2.38,1.98,3-.14,2.34,1.01,3.92,2.99,4.99,.67,1,1.34,1.99,2,2.99Zm-50,26.66c-.23-.68-.7-1.59-.83-2.55-.63-4.82-4.1-8.25-6.3-12.21-3.29-5.94-4.2-12.44-6.25-18.67-3.3-10.03-7.53-19.75-9.57-30.18-.57-2.89-2.83-4.8-4.6-6.94-.76-.92-2.03-1.26-3.19-.59-1.45,.84-1.44,2.46-.81,3.52,1.41,2.38,.86,4.3,.26,6.88-.8,3.48,.21,7.37-3.24,10.02-.17,.13-.2,.77-.04,.94,2.68,2.97-.48,7.66,3.07,10.44,.41,.32,.46,1.82,.09,2.27-2.11,2.54-.76,4.54,.64,6.71,2.07,3.21,.02,8.99,6.11,9.79,.34,.04,.67,1.46,.71,2.25,.28,5.57,4.18,8.85,8.16,11.49,3.48,2.31,6.44,4.77,7.73,8.67,.9,2.71,2.68,2.64,4.69,2.27,2.01-.37,3.14-1.72,3.38-4.1Zm-48.18-226.14c-4.38-.37-6.66,1.32-6.08,4.11,1.21,5.83,3.03,11.59,6.76,16.45,2.27,2.95,4.36,2.03,5.6-.86,1.5-3.5,2.85-7.12,3.72-10.81,.79-3.34-1.14-5.85-4.1-7.16-2.24-.99-4.74-1.41-5.89-1.73Zm-18.28,191.51c-1.29,.32-3.44-.76-3.92,1.59-.3,1.46,1.04,2.99,2.14,2.85,3.73-.45,4.51,1.63,5.15,4.58,.42,1.92,2.35,2.05,4.08,1.87,1.08-.11,1.85-.55,1.86-1.82,.05-3.92-5.16-9.11-9.31-9.08Zm-5.73-5.4c-.08,.49-.23,.95-.18,1.37,.02,.15,.53,.25,.81,.37,.13-.43,.32-.86,.34-1.31,0-.1-.52-.24-.98-.44Zm-83.98-83.51c-.08-.13-.17-.26-.25-.39-.21,.16-.44,.31-.62,.5-.02,.02,.15,.24,.24,.37,.21-.16,.43-.32,.64-.49Z"/>
      <path class="cls-6" d="M387.44,.58c3.99,0,9.54-1.56,11.54,.44,2,2,.44,7.55,.44,11.54v11.98c-1.84-.31-3.64-.13-5.41,.47-11.36,3.89-23.35,5.04-35.06,6.16-13.18,1.26-25.94,5.06-39.2,5.46-3.21,.1-6.34,1.31-9.44,2.75-7.05,3.27-14.42,6.71-22.25,6.49-8.52-.24-16.85-.99-24.97,2.44-2.57,1.09-5.42,1.55-8.17,2.16-11.58,2.54-23.55,1.15-35.12,3.16-7.51,1.3-13.88-1.03-19.98-4.1-4.58-2.31-9.3-4.16-13.99-6.12-6.75-2.82-14.33-2.18-21.18-4.98-5.19-2.12-10.46-.39-14.59,2.8-11.14,8.62-15.86,20.1-13.65,34.2,.51,3.27,.99,6.54,1.49,9.82-27.28-.93-54.56,.69-81.87-.75-16.68-.88-33.47,.43-50.21,.69-1.92,.03-3.99,.75-5.73-.76C.1,57.81,.18,31.19,0,4.57-.02,1.15,.68,.48,4.09,.48c112.48,.12,224.95,.1,337.43,.1-4.77,9.53-7.57,19.79-11.53,29.9,.82,0,1.3,.07,1.75-.01,20.28-3.66,40.57-7.32,60.84-11.02,1.11-.2,2.44-.49,2.49-1.97,.05-1.43-1.19-1.85-2.28-2.26-2.93-1.09-6.07-1.76-8.19-4.35,.04-.24,.09-.47,.16-.7-.02-.21,.04-.38,.2-.52,2.23-2.64,1.84-6,2.47-9.07Z"/>
      <path class="cls-1" d="M137.91,85.24c-.5-3.27-.98-6.55-1.49-9.82-2.21-14.1,2.51-25.58,13.65-34.2,4.13-3.19,9.4-4.92,14.59-2.8,6.85,2.8,14.43,2.16,21.18,4.98,4.69,1.96,9.41,3.81,13.99,6.12,6.1,3.07,12.48,5.41,19.98,4.1,11.57-2.01,23.54-.62,35.12-3.16,2.75-.6,5.6-1.07,8.17-2.16,8.12-3.43,16.45-2.68,24.97-2.44,7.82,.22,15.2-3.22,22.25-6.49,3.1-1.44,6.22-2.65,9.44-2.75,13.27-.4,26.02-4.2,39.2-5.46,11.72-1.12,23.71-2.28,35.06-6.16,1.77-.61,3.56-.78,5.41-.47v3.99c-10.92,1.81-21.95,3.32-32.74,5.47-9.48,1.89-19.27-.05-28.4,3.48-10.49,4.06-22.07,4.23-32.34,9.06-1.2,.56-2.49,1.01-3.53,1.8-5,3.78-10.68,4.62-16.43,2.91-5.67-1.69-11.12-1.38-16.58,.13-6.53,1.8-13.32,2.68-19.53,5.65-1.39,.66-3.26,.34-4.91,.44-9.88,.64-19.87-1.35-29.7,1.7-3.29,1.02-7.14-.44-10.01-2.25-9.62-6.05-20.16-9.09-31.21-10.92-3.08-.51-6.01-2.09-9.08-2.41-10.35-1.06-16.69,3.91-21.22,14.2-3.79,8.6-1.82,16.87-.68,25.33,.19,1.4,1.29,2.25,2.39,3.06,3.49,2.56,6.61,5.52,9.46,8.76,1.39,1.58,2.98,2.66,5.18,2.46,4.41-.4,8.53,.98,12.72,2.02,.16,1.49,1.29,2.27,2.41,2.88,5.97,3.29,8.04,9.01,9.58,15.08-.36,.34-.72,.68-1.08,1.02-22.76,0-45.51,0-68.27,0-1.82-.08-3.65-.26-5.46-.22-16.12,.34-32.23,.72-48.35,1.1-.44-.22-.88-.62-1.32-.62-12.63-.15-25.25-.37-37.84,.98-1.78,.19-3.45,.8-3.65,2.74-.19,1.8,1,3.18,2.65,3.84,3.65,1.47,7.4,1.33,11.15,.33,8.24,.15,16.48,.31,24.72,.46,1.47,1.46,2.93,1.59,4.37-.04,.9-.1,1.79-.19,2.69-.29,0,0,.23,0,.23,0,1.22,.03,2.44,.06,3.65,.09,1.37,.68,2.81,.57,4.26,.41,1.16,.1,2.32,.21,3.48,.28,28.52,1.74,57.08,.45,85.62,1.12,9.86,.23,19.9,.7,29.8-.79,1.48,2.83,1.33,6.49,4.33,8.55,0,1.33,.01,2.66,.02,3.98-.3,3.65-.3,8.52-4.06,9.4-5.05,1.19-10.52,3.81-15.91,.59-2.41-1.44-5.46-.95-6.16,1.06-1.4,4-5.68,5.76-6.67,9.63-.46,1.79-2.63,1.97-2.57,3.95,.16,4.78,.06,4.81-4.28,2.45-.87-.48-1.85-1.64-2.52-1.47-5.27,1.3-10.87,2.11-15.57,4.58-2.93,1.54-5.02,4.36-8.95,4.25-2.28-.06-4.53,2.19-4.41,4.02,.19,2.8,2.54,.37,3.92,.51,1.49,.15,3.4-.17,3.63,1.73,.25,2.07-1.69,2.09-3.17,2.19-2.46,.16-5.82-.25-6.55,2.31-.72,2.53,1.89,4.66,3.86,6.45,.49,.45,.99,.87,.71,1.48-1.22,1.73-4.8-1.9-4.41,1.68,.26,2.33-1.94,4.09-.82,6.04,.84,1.46,2.41,2.49,.36,4.07-1.87,1.44-3.3,.28-4.96-.62-5.25-2.82-8.53-1.18-9.25,4.67-.75,6.08,.97,11.25,6.3,14.8,1.61,1.07,2.75,2.33,2.61,4.45-.17,2.44,.58,3.93,3.47,3.08,.55-.16,1.31,.11,1.9,.37,1.01,.44,1.85,1.53,1.16,2.35-2.05,2.44-5.34,2.9-7.99,4.42-.63,.37-1.76-1.02-1.33-1.6,3.19-4.23-2.35-5.9-2.61-9.13-.12-1.43-1.7-1.94-3.17-1.68-1.62,.28-2.68,1.31-3.13,2.86-.37,1.26,0,2.3,1.33,2.81,.91,.35,2.13,.49,1.89,1.84-.22,1.26-1.44,1.19-2.4,1.3-1.22,.13-2.19,.68-3.1,1.46-.88,.76-1.81,1.67-3.02,.6-.93-.82-.58-1.84-.11-2.74,1.67-3.23,1.65-5.99-1.82-8.12-1.08-.66-1-2.02-1.04-3.19,1.16-.23,2.76,.56,3.3-1.12,.29-.9-.55-1.49-1.4-1.55-1.94-.12-1.77,1.41-1.91,2.66-2.08,0-4.56,.38-5.22,2.26-1.56,4.47-5.53,6.25-9,7.92-3.85,1.85-6.94,3.24-5.34,8.53-1.99-.86-3.33-1.47-4.7-2.03-1.18-.48-2.27-2.12-3.55-1.22-1.63,1.14,.48,2.25,.56,3.44,.11,1.65,.23,3.31,.25,4.96,.02,1.18-.09,2.48-1.53,2.78-1.8,.38-2.12-.99-2.56-2.33-.55-1.66-1.22-4.59-3.1-3.64-2.33,1.18-6.36,2.86-5.82,5.64,.93,4.81-1.04,3.62-3.49,2.56-1.42-.62-2.96-1.54-3.92,.2-1.05,1.9,.8,2.26,2.04,3.14,2.62,1.86,4.71,4.09,.82,6.94-1.37,1-2.3,2.37-2.38,4.19-.09,1.96-1.16,3.22-3.13,3.09-2.32-.15-2.86-1.89-2.84-3.93,.01-1.49,.03-3-.14-4.48-.06-.55-.55-1.22-1.04-1.5-.66-.38-1.45,.1-1.5,.78-.25,3.86-2.52,3.45-5.21,2.76-1.68-.43-3.35,.26-4.68,1.29-2.83,2.17-4.5,1.46-5.31-1.88-.23-.95-.33-2.26-1.62-2.09-1.8,.23-1.07,1.65-.95,2.75,.25,2.46-1.46,3.83-3.31,4.37-2.42,.7-3.59-1.19-4.1-3.29-.5-2.1-1.13-3.58-3.64-1.98-.82,.52-1.92,.03-2.14-.68-1.84-5.86-6.48-3.47-10.27-3.6v-8.98c4.24,.12,9.25-1.43,10.11,5.36,.21,1.66,2.31,1.96,2.93,.5,1.06-2.49,3.21-4.58,2.78-7.73-1.05-7.68-.16-8.76,7.82-10.15-.83-2.34-1.3-4.61-4.73-2.7-2.38,1.32-4.89-.03-7.07-.96-1.31-.56-.4-2.06,.38-2.95,1.21-1.38,2.09-2.74,.11-4.13-1.14-.8-2-2.63-3.77-1.69-1.78,.94-2.43,2.61-1.99,4.64,.35,1.61,.92,3.29-.72,4.57-.78,.61-1.9,1.12-1.32,2.29,.56,1.12,1.69,.63,2.66,.44,2.75-.54,4.16,1.21,4.52,3.42,.38,2.32-1.38,3.54-3.52,4.07-2.73,.68-5.46,1.36-8.19,2.04,0-7.65,0-15.31,0-22.96,2.27-.24,5.31,.85,5.78-2.76,.3-2.26-1.22-3.59-3.36-4.08-.78-.18-1.62-.1-2.43-.14V110.39c18.44,0,36.89-.03,55.33,0,37.72,.07,75.43,.19,113.15,.22,1.49,0,4,.92,4.27-1.12,.26-1.99-2.23-2.73-3.96-3.04-3.42-.61-6.91-.81-10.35-1.29-6.58-.91-11.36-4.2-13.66-10.63,.87-5.49-3.43-7.1-6.96-9.29ZM41.03,253.14c.15,.61,.16,1.33,1.04,1.36,.11,0,.32-.21,.31-.31-.03-.88-.75-.89-1.36-1.04-.15-1.18-.81-1.85-2-2-.3-1.24,.73-3.13-1.51-3.42-.79-.1-1.82,.45-1.75,1.27,.17,1.88,1.93,1.78,3.26,2.15,.15,1.18,.81,1.85,2,2Zm-20.39-6.55c1.99-.48,1.44-2.33,1.85-3.57,.51-1.57-.4-2.56-1.97-2.59-1.29-.03-2.19,.85-2.18,2.15,.02,1.68,.69,3.14,2.3,4.02Zm26.21-4.81q4.31-1.23,5.32-4.12c-2.13,.41-3.27,1.94-5.32,4.12Zm18.77-.62c.31-.52,.57-.84,.67-1.2,.03-.09-.47-.5-.64-.46-.36,.1-.66,.4-.98,.62,.26,.28,.52,.57,.95,1.03Z"/>
      <path class="cls-3" d="M96.94,223.2c.04,1.17-.03,2.53,1.04,3.19,3.47,2.13,3.49,4.89,1.82,8.12-.47,.9-.82,1.92,.11,2.74,1.21,1.07,2.14,.16,3.02-.6,.9-.78,1.88-1.33,3.1-1.46,.96-.1,2.18-.03,2.4-1.3,.23-1.34-.99-1.49-1.89-1.84-1.33-.51-1.7-1.55-1.33-2.81,.45-1.55,1.52-2.57,3.13-2.86,1.47-.26,3.06,.25,3.17,1.68,.26,3.23,5.8,4.89,2.61,9.13-.44,.58,.69,1.96,1.33,1.6,2.65-1.52,5.94-1.99,7.99-4.42,.69-.82-.15-1.91-1.16-2.35-.58-.25-1.34-.53-1.9-.37-2.89,.85-3.64-.64-3.47-3.08,.15-2.13-.99-3.38-2.61-4.45-5.33-3.54-7.05-8.72-6.3-14.8,.72-5.86,4-7.5,9.25-4.67,1.66,.89,3.1,2.06,4.96,.62,2.05-1.58,.48-2.61-.36-4.07-1.12-1.95,1.07-3.71,.82-6.04-.39-3.58,3.18,.05,4.41-1.68,.28-.62-.21-1.04-.71-1.48-1.97-1.79-4.58-3.92-3.86-6.45,.73-2.55,4.09-2.14,6.55-2.31,1.49-.1,3.43-.12,3.17-2.19-.23-1.9-2.14-1.57-3.63-1.73-1.38-.14-3.73,2.28-3.92-.51-.12-1.83,2.12-4.08,4.41-4.02,3.93,.11,6.02-2.71,8.95-4.25,4.7-2.47,10.3-3.29,15.57-4.58,.68-.17,1.65,.99,2.52,1.47,4.34,2.36,4.44,2.33,4.28-2.45-.07-1.98,2.11-2.16,2.57-3.95,.99-3.87,5.27-5.63,6.67-9.63,.7-2.02,3.75-2.5,6.16-1.06,5.38,3.22,10.86,.6,15.91-.59,3.76-.88,3.76-5.75,4.06-9.4,2.74,.86,2.35,3.35,1.88,5-2.47,8.61,2.59,15.33,5.22,22.69,2.57,7.2,7.6,12.71,12.01,18.74,8.37,11.45,14.28,24.35,19.54,37.44,3.61,8.97,9.39,16.73,13.14,25.58,.99,2.33,1.12,4.33,.04,6.65-1.15,2.49-2.17,4.83-.75,7.99,1.11,2.47-1.72,5.21-3.84,5.34-6.22,.38-7.33,5.2-9.31,9.35-.55,1.15-.33,2.89-1.88,3.19-1.45,.28-1.52-1.49-2.3-2.27-.96-.96-2.3-2.25-3.38-1.21-1.59,1.53-3.07,3.53-3.68,5.6-.43,1.45,1.52,2.49,3.08,2.55,2.7,.1,5.82,2.65,7.97-1.27,.38-.69,1.54-.65,2.26-.09,1.02,.79,.77,1.85,.07,2.62-3.24,3.59-.82,4.38,2.33,4.84,3.62,.53,4.53,2.76,4.01,6.09-.91,5.82,.12,12.05-3.82,17.25-.42,.56-.11,2,.3,2.82,2.52,5.08-.71,6.06-4.57,6.43-2.38,.23-4.75-.75-7.16,.88-1.47,1-3-.45-3.05-2.16-.15-5.32-4.45-5.28-7.82-5.93-3.9-.76-5.03,3.17-6.21,5.46-1.33,2.58,.28,6.23,2.24,7.88,2.94,2.47,1.56,3.06-.23,5.11-1.88,2.15-4.32,3.55-6.11,5.66-1.64,1.94-3.59,1.74-5.4,.93-2.01-.9-4.1-2.63-3.33-4.97,1.58-4.8-2.04-5.62-4.79-6.23-3.79-.84-6.15-1.78-6.7-6.38-.6-4.94-3.52-1.97-5.95-.36-1.09-2.54-1.58-5.15,.52-6.85,3.1-2.52,2.54-5.42,1.17-8.02-1.24-2.35-1.18-4.35-.47-6.61h0c1.89-.17,2.5,2.05,4.24,2.33,1.68-2.23,2.01-4.09-.8-5.71-2.29-1.32-3.32-3.42-3.65-6.14-.29-2.39-.92-4.73-3.94-5.74-3.26-1.09-3.42,1.65-4.77,3.02-.57,.58-1.33,.98-2.33,.5-.52-1.75,.43-3.09,1.42-4.4,.67-.89,.85-1.81,.09-2.71-.8-.95-1.72-.71-2.66-.15-3.14,1.89-4.55,.09-5.5-2.62-.05-.15-.02-.35-.1-.49-3.02-4.88-7-9.15-8.52-14.97-.67-2.56-2.6-3.2-4.89-1.03-1.42,1.35-3.59,2-4.85,.28-1.29-1.76,.77-2.83,1.98-3.91,2.4-2.14-.59-8.67-4.56-9.9-.78-.24-1.65-.17-2.46-.3-.93-.15-2.22-.07-1.85-1.58,.24-.96,1.19-1.07,2.05-.87,4.34,.99,7.02,1.11,7-5.16,0-2.21,1.61-3.54-1.03-5.64-2.23-1.78-.02-4.94,4.22-6.22,.14,.28,.41,.56,.41,.84-.01,1.74-3.44,2.87-1.47,4.62,2.22,1.98,3.31-1.04,4.68-2.13,2.73-2.17,6.35-2.96,8.69-5.68,.61-.71,1.68-1.44,.72-2.49-.67-.74-1.5-.15-2.26,.18-6.81,2.93-8.8,2.22-12.49-4.46-.67-1.22-.79-3.46-2.83-2.61-2.2,.92-.79,2.6-.35,4.19,.77,2.81,3.32,6.84-3.08,6.44-1.05-.07-1.63,1.01-2.13,1.9-1.92,3.36-2.09,7.58-5.4,10.32-1.14,.94,.7,2.31,.87,3.43-.94,.87-1.86-.05-2.5,.24-3.69,1.69-6.48,2.13-5.23-3.63-2.18,.42-2.89,1.9-3.27,3.21-.63,2.19-1.19,3.33-3.64,1.75-1.69-1.09-2.91-.28-3.99,1.49-1.66,2.72-3.54,2.32-4.56-.57-1.08-3.09-1.85-2.41-4.02-.63-5.08,4.15-9.27,10.54-17.51,8.33-1.8-.48-1.94,.72-1.94,2.4,.01,5.92-1.56,7.6-7.62,8.8-1.7,.34-2.54,1.51-2.88,3.05-.39,1.72-.86,3.3-3.02,3.31-1.88,0-2.43-1.48-2.96-2.9-.48-1.28-.94-2.7-2.6-2.53-1.54,.15-1.48,1.58-1.51,2.73-.05,1.96-.86,2.66-2.85,2.17-1.7-.42-3.02,.68-3.76,1.93-2.24,3.85-6.13,1.05-8.93,2.42-.11,.05-.43-.05-.45-.14-2.2-7.68-4.83-.9-6.58,.11-4.39,2.55-7.22-.55-10.4-2.21-2.52-1.31-4.77-2.57-6.99,.2-.84,1.05-1.91,1.15-2.46,.24-1.95-3.21-4.77-2.7-7.86-2.61-2.19,.06-5.22,.25-5.65-3.44-.47-4.03-3.37-2.79-4.26-.99-2.74,5.52-5.08,3.21-7.71,.2v-11.98c3.78,.14,8.43-2.26,10.27,3.6,.23,.72,1.32,1.2,2.14,.68,2.51-1.6,3.14-.12,3.64,1.98,.5,2.1,1.67,3.99,4.1,3.29,1.85-.54,3.57-1.91,3.31-4.37-.11-1.1-.85-2.52,.95-2.75,1.3-.16,1.39,1.14,1.62,2.09,.81,3.34,2.48,4.05,5.31,1.88,1.34-1.02,3-1.72,4.68-1.29,2.69,.69,4.97,1.1,5.21-2.76,.04-.68,.83-1.16,1.5-.78,.49,.28,.98,.95,1.04,1.5,.17,1.48,.15,2.98,.14,4.48-.02,2.03,.52,3.78,2.84,3.93,1.98,.13,3.04-1.13,3.13-3.09,.08-1.83,1.02-3.2,2.38-4.19,3.89-2.84,1.8-5.08-.82-6.94-1.24-.88-3.08-1.24-2.04-3.14,.96-1.74,2.5-.81,3.92-.2,2.45,1.06,4.42,2.25,3.49-2.56-.54-2.78,3.49-4.46,5.82-5.64,1.88-.95,2.55,1.98,3.1,3.64,.44,1.34,.76,2.71,2.56,2.33,1.44-.3,1.55-1.6,1.53-2.78-.03-1.65-.14-3.31-.25-4.96-.08-1.19-2.18-2.3-.56-3.44,1.28-.9,2.37,.73,3.55,1.22,1.36,.56,2.71,1.17,4.7,2.03-1.59-5.29,1.5-6.68,5.34-8.53,3.47-1.66,7.44-3.44,9-7.92,.65-1.88,3.13-2.25,5.22-2.26h0Zm86.59-17.57c-4.21-1.21-3.69,1.74-3.5,4.85,.2,3.3,1.97,7.24-1.89,9.5-1.56,.91-3.68,.61-2.77,3.4,.71,2.2,1.49,4.15,4.39,3.63,1.11-.2,2.55-.84,2.85,.85,.45,2.56,2.67,4.36,2.96,6.78,.48,3.96,2.31,3.6,4.45,1.62,2.88-2.65,4.51-2.17,6.49,1.16,3.71,6.24,7.28,7.39,13.94,5.26,1.79-.58,3-.47,2.66,1.91-.37,2.62,2.06,3.26,3.03,2.29,3.44-3.44,6.98-1.01,10.3-.54,3.78,.54,7.84-.93,11.45,2.01,1.71,1.4,4.67-1.82,3.43-4.14-1.5-2.8-1.99-6.42-5.45-8-2.46-1.12-3.25-3.47-4.22-5.85-1.69-4.15-1.24-9.09-4.15-12.63-3.17-3.87-4.61-8.24-5.85-12.94-1.54-5.81-4.95-10.64-9.58-14.52-1.64-1.37-3.54-1.31-4.92,.28-5.53,6.34-13.32,9.59-19.82,14.59-1,.77-2.03,1.1-3.81,.51Zm-30.16,41.76c-1.72,.18-3.12,.86-3.43,2.86-.45,2.93-.92,5.81,.81,8.61,.62,1.01,.77,2.4,2.31,1.86,1.73-.61,1.47-1.86,.71-3.22-1.28-2.29-1.61-4.39,1.4-5.71,1-.44,1.54-1.33,.99-2.44-.54-1.08-1.43-1.81-2.79-1.96Zm-10.04-67.64c1.09-.04,7.22-6.63,7.2-7.78-.01-.77-.46-1.12-1.22-1.2-1.64-.16-7.69,4.46-7.99,6.16-.06,.31-.04,.67,.05,.97,.3,.98,.72,1.86,1.96,1.85Zm-15.93,20.67c.11,4.24,3.47,3.87,5.28,5.25,.78,.6,1.91,1.98,2.79,.27,.58-1.12-.19-2.49-1.19-2.98-2.03-.98-4.24-1.59-6.89-2.54Zm6.89-3.73c.06-.8-.41-1.29-1.1-1.26-.56,.03-1.41,.32-1.58,.73-.4,.98,.34,1.49,1.24,1.58,.72,.08,1.21-.35,1.44-1.05Zm1.54,40.71c-.54-.23-.88-.46-1.24-.49-.12-.01-.47,.54-.4,.7,.14,.34,.49,.6,.75,.89,.25-.3,.49-.61,.88-1.09Z"/>
      <path class="cls-3" d="M.1,358.96c.64-.14,1.74-.1,1.86-.43,2.05-5.32,6-3.21,9.58-2.56,1.2,.22,2.41,.33,1.69,2.14-.47,1.18-3.46,2.53-.22,3.66,2.56,.89,4.07-.52,4.28-3.26,.03-.36,.59-.68,1.2-1.32,1.66,3.09,4.08,5.22,6.59,7.28,1.11,.92,2.26,1.74,3.35,.18,.86-1.23,.09-2.04-1.03-2.8-3.54-2.41-1.67-4.36,.69-6.15,.36-.28,1.23-.54,1.35-.39,1.82,2.2,3.88,4.29,5.22,6.77,1.31,2.43-1.88,2.48-3.24,4.24,6.1-.32,5.58,4.31,6.22,7.81,.27,1.47-1.12,3.5,1.03,4.28,2.51,.9,2.46-1.62,3.01-2.96,.91-2.23,1.76-2.67,3.33-.51,1.09,1.5,.68,4.92,3.2,4.33,2.38-.55,4.98-2.37,6.37-4.4,2.27-3.32,3.24-3.6,4.59,.4,.73,2.16,2.23,1.72,3.31,.21,.95-1.32,1.66-3.58,3.55-1.51,1.63,1.79-.62,2.86-1.68,3.97-.43,.46-1.12,.7-1.71,.99-.64,.31-1.21,.72-1.01,1.47,.25,.95,1.13,1.34,1.96,1.05,2.99-1.04,5.53,.35,8.14,1.37,1.68,.65,3.89,2,4.59-.52,.59-2.11-1.47-3.48-3.57-3.95-.73-.16-1.61,.37-2.28-.34,.7-1.67,8.65-7.17,9.92-6.72,2.44,.87,1.43,2.57,.64,4.03-1.47,2.71-.94,3.89,2.25,3.01,1.63-.45,3.11,.02,4.22,.95,2.75,2.3,5.3,4.59,8.11,.12,.18-.29,1.16-.48,1.37-.28,3.23,2.91,6.44,1.26,9.97,.54,3.61-.74,5.66,1.76,5.98,5.54,.26,3.08,1.35,4.66,4.24,1.71,.53-.54,1.45-.98,2.19-1,5.13-.09,9.14-1.48,10.56-7.21,.37-1.49,2.29-2,3.56-.28,.91,1.23,1.79,2.48,3.31,2.88,2.02,.54,4.56,2.31,6.03,.87,1.6-1.56-1.41-2.82-2.07-4.4-1.38-3.31,2.96-12.06,6.47-12.64,1.72-.28,2.85,.5,3.65,1.96,.83,1.5,.48,2.39-1.12,3.09-1.87,.81-1.77,2.08-.58,3.57,4.45,5.56,7.21,12.27,14.06,16.21,2.18,1.25,5.98,5.35,5.58,9.92-54.78,0-109.55-.05-164.33,.11-3.95,.01-4.54-1.13-4.47-4.69,.24-12.11,.09-24.23,.09-36.35Z"/>
      <path class="cls-1" d="M399.42,268.12c-9.02-1.7-17.39-5.37-25.7-9.02-5.73-2.52-6.67-5.83-4.79-12.02,.47-1.55,1.33-3.53-.64-4.4-1.92-.84-3.08,.99-3.73,2.46-1.68,3.8-4.8,5.69-8.36,7.34-4.11,1.9-6.8,4.77-5.18,9.86,.71,2.24-.37,4.23-1.49,6.09-4.29,7.13-7.07,14.92-10.01,22.64-1.83,.11-2.9,1.43-4.08,2.56-1.08,1.04-2.24,1.47-3.46,.3-5.47-5.27-13.63-5.22-19.41-9.86,0,0,0,0,0,0-4.97-10.3-5.59-20.51,.4-30.7,1.83-3.11,3.75-6.26,7.78-5.81,3.55,.39,7.24,.7,10.55,2.44,1.75,.92,4.12,2.15,5.31-.04,1.42-2.59-1.49-3.55-3.08-4.76-2.25-1.72-5.8-2.07-5.95-5.9,5.94-1.1,10.76-4.8,16.24-6.99,1.51,.09,3.01,.17,4.52,.26,.31,.76,.54,1.56,.96,2.26,3.1,5.27,3.1,5.24,7.45,.73,1.49-1.55,3.14-2.95,4.74-4.39,6.08-5.48,9.8-11.92,9.12-20.49-.4-4.96-.45-10.1,2.1-14.56,1.81-3.16,1.52-5.89-.02-8.83,7.17,.2,8.71,2.41,5.94,8.83-3.24,7.51-1.74,15.51-2.41,23.27-.22,2.58,2,4.96,4.53,2.45,5.96-5.88,12.13-4.79,18.68-1.66v47.92Zm-87.97,2.83c.21,1.46,.06,3.28,.76,4.67,1.32,2.6,4.08,3.45,5.28,.55,2.46-5.93,5.78-11.97,2.1-18.83-1.3-2.43-1.96-2.04-3.44-.42-3.61,3.95-3.98,8.92-4.71,14.04Z"/>
      <path class="cls-6" d="M144.87,94.53c2.3,6.44,7.08,9.72,13.66,10.63,3.44,.48,6.93,.67,10.35,1.29,1.73,.31,4.22,1.05,3.96,3.04-.27,2.04-2.78,1.12-4.27,1.12-37.72-.03-75.43-.15-113.15-.22-18.44-.03-36.89,0-55.33,0,0-5.32,0-10.65,0-15.97,6.29,.21,12.59,.59,18.88,.61,32.86,.08,65.72,.08,98.58,.07,9.1,0,18.22,.64,27.31-.56Z"/>
      <path class="cls-5" d="M144.87,94.53c-9.08,1.2-18.2,.56-27.31,.56-32.86,0-65.72,0-98.58-.07-6.3-.02-12.59-.4-18.88-.61,0-3.33,0-6.66,0-9.98,1.74,1.51,3.81,.79,5.73,.76,16.74-.26,33.53-1.57,50.21-.69,27.31,1.43,54.59-.19,81.87,.75,3.53,2.19,7.83,3.8,6.96,9.29Z"/>
      <path class="cls-5" d="M384.6,10.87c2.12,2.6,5.26,3.27,8.19,4.35,1.09,.41,2.33,.83,2.28,2.26-.05,1.48-1.37,1.76-2.49,1.97-20.28,3.7-40.56,7.36-60.84,11.02-.45,.08-.94,.01-1.75,.01,3.96-10.11,6.77-20.38,11.53-29.9h31.95c.02,1.59-.43,3.49,1.34,4.34,1.92,.92,2.82-1.03,3.95-2.04,.69-.63,1.14-1.52,1.7-2.29,1.66,0,3.33,0,4.99,0,.3,3.05-2.62,5.93-.48,9.07-.16,.14-.22,.31-.2,.5-1.04-.72-1.38-.02-1.56,.82-.09,.44-.04,1.07,.6,.92,.32-.07,.53-.67,.79-1.02Z"/>
      <path class="cls-2" d="M399.42,108.39v45.92c-1.71,0-2.59-.67-3.04-2.51-1.63-6.69-6.93-11.07-10.75-16.38-.46-.65-1.74-.93-2.67-.98-4.36-.25-11.26,3.86-12.82,7.85-1.13,2.87-1.78,5.93-2.65,8.91-1.01-.44-2.02-.89-3.03-1.33-.29-.97,.57-3.05-1.98-1.64-1.43,.79-2.11,1.99-3,3.14-1.08-.05-2.16-.09-3.24-.14,1.77-3.48-.43-7.5,1.73-11.04,4.71-7.72,8.66-15.8,11.39-24.48,2.43-7.73,1.29-10.07-6.06-13.88-4.1-2.13-8.87-3.41-11.88-7.37,5.4-1.53,10.61-.49,15.87,.93,3.12,.85,5.55,3.72,9.16,3.02,2.41,2.15,6.42-.22,8.56,3.65,2.84,5.12,7.04,8.58,13.5,5.22,.3,.37,.6,.74,.9,1.11Zm-19.99,11.01c-1.55,1.65-.59,3.81-1.17,5.65-.35,1.13-.65,2.65-2.51,2.08-.62-.19,.08-2.71-1.56-.94-.47,.51-.58,1.54-.52,2.31,.08,1.04,.96,1.15,1.85,1,3.85-.68,7.87,.78,11.65-.91,.98-.13,1.96-.26,2.93-.39,4.89,1.82,6.49-.12,5.86-7.1-.34-5.65-7.69-10.26-12.14-7.59-2.24,1.35-2.77,4.03-4.38,5.89Z"/>
      <path class="cls-3" d="M367.5,151.2c.87-2.98,1.52-6.03,2.65-8.91,1.56-3.98,8.46-8.1,12.82-7.85,.92,.05,2.2,.34,2.67,.98,3.82,5.31,9.12,9.69,10.75,16.38,.45,1.84,1.33,2.51,3.04,2.51v7.99c-2.64,.62-2.16,3.13-2.74,4.85-3.23,9.7-3.7,10.33-13.68,8.99-5.5-.74-10.8-2.68-14.67-7.15,.07-1.19,.3-2.62,1.66-2.63,5.03-.04,5.15-4.13,5.57-7.25,.48-3.54-2.93-4.73-5.5-5.97-1.06-.51-2.06-.81-2.57-1.94Z"/>
      <path class="cls-3" d="M399.42,378.93c-1.63,.11-2.68,1.19-3.76,2.24-.84,.82-1.88,1.98-2.97,1.44-5.63-2.78-12.15-1.14-17.81-3.77-3.29-1.53-5.06-3.66-4.05-7.42,2.34-8.75,7.06-16.35,11.78-23.92,1.23-1.97,2.54-3.86,3.5-5.98,1.78-3.93,4.52-4.77,7.67-1.93,1.73,1.56,3.3,2.67,5.65,2.41v36.94Z"/>
      <path class="cls-6" d="M399.42,108.39c-.3-.37-.6-.74-.9-1.11-.26-2.92-.96-6.03-4.25-6.35-2.26-.22-2.49-.97-3-2.76-1.13-3.95-3.58-5.81-7.82-3.76-1.63,.79-3.37,1.59-5.02-.07,1.91-.97,3.93-1.76,5.68-2.96,1.31-.9,2.63-2.12,2.29-4.11-.36-2.08-2.32-1.5-3.52-2.17-.52-.82-1.29-1.57-1.53-2.47-1.87-6.83-7.03-10.51-13.2-12.22-6.21-1.72-12.13-.4-15.75,5.91-.61-.66-.73-1.41-.55-2.29,1.45-6.94,3.94-8.78,12.32-9.25,2.21-.12,5.39,.4,5.5-2.71,.1-2.71,1.83-3.03,3.3-4.24,4.17-3.42,8.22-.24,12.32-.09-.27,1.42-2.53,2.13-1.43,4.03-3.96,2.1-3.02,4.92-1.41,8.25,1.83-2.43,3.38-4.5,4.93-6.56-.42-2.05,1.08-4.68-1.79-6.01-.57-1.52,.24-2.73,.87-3.99,2.64-5.39,7.67-6.89,12.96-7.97v4.99c-4.27,2.22-8.91,4.14-7.5,10.48,.1,.43-.66,1.09-1.07,1.59-1.62,1.99-1.54,3.39,1.11,4.45,1.18,.47,2.09,1.62,3.08,2.42,1.6-2.54,2.99-4.75,4.39-6.96v23.96c-3.48,.47-6.73,2.1-6.36,5.76,.33,3.3,3.83,2.5,6.36,2.23v13.98Z"/>
      <path class="cls-3" d="M173.81,399.89c-1.49-3.84,.31-7.77-.33-11.69-.26-1.61,7.09-4.57,9.32-3.43,2.34,1.2,3.36,.52,4.99-1.12,3.04-3.05,8.09-2.61,11.24,.65,2.57,2.65,6.17,.98,9.23,2.24,2.55,1.05,5.41,.99,6.94,3.88,.32,.6,1.62,1.37,1.96,1.18,4.9-2.8,8.41,2.1,12.81,2.22,4.01,.11,7.11,2.2,8.74,6.07h-64.89Zm20.66-13.19c-.4-.63-.35-2.04-1.78-2.17-1.21-.1-1.66,.88-1.65,1.89,.01,1.28,.76,2.13,2.07,2.17,.92,.03,1.42-.59,1.36-1.9Z"/>
      <path class="cls-2" d="M368.34,168.99c3.87,4.47,9.17,6.41,14.67,7.15,9.97,1.34,10.45,.71,13.68-8.99,.57-1.72,.1-4.23,2.74-4.85v25.96c-2.95,.88-5.57,2.92-8.87,2.56-2.03-.22-2.08,1.16-2.06,2.53,.07,5.15,4.11,3.5,6.9,3.99-1.93,6.49-4,12.9-9.24,17.67-1.37,1.25-2.68,2.64-4.76,1.85-2.2-.84-2.2-2.92-1.88-4.64,1.12-5.98,.29-12.23,2.75-18.02,1.67-3.95,.3-6.92-3.26-9.27-2.87-1.89-6.16-2.37-9.29-3.28-2.66-.77-3.77-2.19-3.17-4.59,1.3-5.27-1.95-5.69-5.71-5.76-.11-.16-.21-.32-.32-.48,.13-.37,.26-.74,.39-1.11,.28-.39,.56-.79,.84-1.18,2.18,.33,4.31,1.47,6.58,.47Z"/>
      <path class="cls-3" d="M360.84,171.29c3.77,.06,7.01,.49,5.71,5.76-.59,2.4,.52,3.82,3.17,4.59,3.13,.9,6.42,1.38,9.29,3.28,3.56,2.35,4.94,5.33,3.26,9.27-2.46,5.79-1.63,12.04-2.75,18.02-.32,1.72-.32,3.8,1.88,4.64,2.07,.79,3.38-.6,4.76-1.85,5.24-4.77,7.31-11.18,9.24-17.67,0,0,.15-.25,.15-.25,.96,.05,1.93,.11,2.89,.16,.33,.33,.65,.66,.98,.99v21.96c-6.54-3.14-12.72-4.22-18.68,1.66-2.54,2.5-4.75,.12-4.53-2.45,.66-7.76-.84-15.76,2.41-23.27,2.77-6.42,1.24-8.63-5.94-8.83-1.84-2.31-4.01-4.06-7.14-4.18l.09,.03c.31-.94-.27-1.29-1.02-1.52-1.82-1.39-3.64-2.78-5.46-4.16,.35-1,.48-2.26-.71-2.47-3.39-.59-6.83-1.33-10.14,.52-5.78,3.23-5.6,3.15-7.29-3.38-.88-3.4-.42-5.11,3.38-5.09,.79,0,1.76-.18,2.35-.65,3.65-2.93,5.41-1.42,7.39,2.23,1.1,2.02,2.9,5.87,6.71,2.65Z"/>
      <path class="cls-3" d="M.1,246.15c2.73-.68,5.46-1.36,8.19-2.04,2.14-.53,3.9-1.75,3.52-4.07-.36-2.21-1.78-3.95-4.52-3.42-.97,.19-2.1,.68-2.66-.44-.59-1.17,.53-1.68,1.32-2.29,1.65-1.27,1.08-2.95,.72-4.57-.45-2.03,.21-3.7,1.99-4.64,1.76-.94,2.62,.89,3.77,1.69,1.99,1.39,1.11,2.75-.11,4.13-.78,.89-1.68,2.38-.38,2.95,2.18,.94,4.69,2.29,7.07,.96,3.43-1.91,3.91,.36,4.73,2.7-7.98,1.39-8.87,2.47-7.82,10.15,.43,3.15-1.72,5.24-2.78,7.73-.62,1.46-2.72,1.16-2.93-.5-.86-6.79-5.87-5.25-10.11-5.36,0-1,0-2,0-2.99Z"/>
      <path class="cls-3" d="M399.42,331.01c-6.46-1.53-9.09-6.99-6.72-14.74,1.43-4.67,3.76-9.05,3.98-14.09,.07-1.51,1.01-2.8,2.74-3.12v31.94Z"/>
      <path class="cls-3" d="M360.49,399.89c.42-3.46,1.26-6.78,2.95-9.88,1.5-2.76,3.8-3.57,6.66-2.89,2.75,.66,3.4,2.81,3.36,5.33-.03,2.48,0,4.95,0,7.43h-12.98Z"/>
      <path class="cls-5" d="M399.42,62.47c-1.39,2.21-2.79,4.43-4.39,6.96-.99-.8-1.9-1.95-3.08-2.42-2.65-1.06-2.72-2.46-1.11-4.45,.41-.51,1.17-1.16,1.07-1.59-1.42-6.34,3.23-8.26,7.5-10.48v11.98Z"/>
      <path class="cls-1" d="M395.4,197.34c-2.79-.49-6.83,1.16-6.9-3.99-.02-1.37,.03-2.76,2.06-2.53,3.3,.36,5.92-1.67,8.87-2.56v2.99c-1.55,1.77-6.5,1.29-3.87,5.83l-.15,.25Z"/>
      <path class="cls-5" d="M399.42,94.42c-2.53,.27-6.03,1.07-6.36-2.23-.37-3.66,2.88-5.29,6.36-5.76v7.99Z"/>
      <path class="cls-3" d="M.1,216.21c.81,.04,1.65-.04,2.43,.14,2.14,.49,3.65,1.83,3.36,4.08-.47,3.61-3.52,2.52-5.78,2.76v-6.99Z"/>
      <path class="cls-4" d="M380.45,.58c-.56,.77-1.01,1.67-1.7,2.29-1.13,1.02-2.03,2.96-3.95,2.04-1.77-.84-1.33-2.75-1.34-4.34,2.33,0,4.66,0,6.99,0Z"/>
      <path class="cls-6" d="M395.55,197.08c-2.62-4.54,2.32-4.06,3.87-5.83v5.99c-.33-.05-.65-.05-.98,0-.96-.05-1.93-.11-2.89-.16Z"/>
      <path class="cls-4" d="M384.97,9.65c-2.14-3.15,.78-6.03,.48-9.07h2c-.63,3.08-.24,6.43-2.47,9.07Z"/>
      <path class="cls-2" d="M398.44,197.24c.33-.06,.65-.06,.98,0v1c-.33-.33-.65-.66-.98-.99Z"/>
      <path class="cls-1" d="M293.61,229.18c-.54-.38-1.04-.86-1.63-1.13-9.02-4.16-11.58-10.64-7.53-19.85,.5-1.15,1.83-3.46-.08-4.46-1.79-.93-2.83,1.22-4,2.27-5.21,4.67-8.5,4.53-12-1.42-4.09-6.94-8.49-13.85-8.75-22.39-.12-4.03,1.97-7.29,3.08-10.87,1.23-3.94,3.46-7.46,4.85-11.39,1.24-3.53,4.13-5.39,8.43-5.78,6.52-.59,12.43,.76,18.24,3.29,3.3,1.44,4.93,3.27,3.3,7.35-1.63,4.08-4.9,7.04-6.45,11.16-1.15,3.08-1.57,6.06-1.44,9.23,.06,1.51,.08,3.13,1.89,3.67,1.7,.5,2.24-1.07,3.07-2.02,5.05-5.75,8.03-12.94,13.26-18.62,3.58-3.89,7.67-5.9,12.79-6.04,1.38-.04,2.9,.15,3.29-1.44,.36-1.45-1.18-1.84-2.16-2.32-1.9-.95-2.77-2.79-4.05-4.28-2.11-2.45-3.97-5.38-8.2-3.95-2.13,.72-3.74-.88-4.93-2.62,.19-.16,.4-.25,.64-.29,1.35,.2,2.66,.31,3.35-1.26,.2-.24,.43-.45,.67-.63,5.79-4.47,7.19-11.26,9.31-17.66,.47-.38,.94-.76,1.41-1.14,2.34,.93,4.04,3.29,6.88,3.14,1.67,2.25,2.52,3.6-.4,6.4-3.16,3.03-4.83,7.83-6.48,12.11-.89,2.31,.18,5.45,2.33,6.64,2.71,1.5,4.38,3.92,6.71,5.69-.58,3.71-4.91,2.78-6.5,5.23-1.9,.91-4.6,1.33-2.76,4.52,.17,1.55,1.1,2.72,1.93,3.96,7.62,11.43,7.53,11.38,.24,22.76-1.81,2.82-3.57,4.66-7.11,3.23-3.19-1.29-5.5-.07-6.98,2.78-1.23,2.37-2.15,3.48-5.27,1.85-2.54-1.33-6.18-1.88-8.23,1.9-1.69,3.13-3.78,6.15,.73,8.81,.75,.44,1.06,1.61,1.63,2.4,3.31,4.5,9.28,5.57,12.79,9.83,.19,.23,1.15,.19,1.4-.06,2.59-2.64,7.32-2.2,8.85-6.54,.7-2,2.49-3.63,3.89-5.58,1.54,2,.94,3.82,.73,5.56-.32,2.58-1.96,4.98-1,7.73-.18,1.86-1.32,3.71-.05,5.57,.15,.54,.31,1.08,.46,1.62-1.72-.31-3.44-.62-5.16-.93,0,0,0,0,0,0-1.41-2.53-3.36-3.37-6.25-2.46-3.1,.97-6.18,.43-9.29-.48-3.17-.93-5.99-2.94-9.42-3.04Z"/>
      <path class="cls-1" d="M355.47,280.08c.34-1.33,.68-2.65,1.02-3.98,1.24-.62,1.9-1.62,1.98-3.01,1.65-6.73,6.38-8.84,12.4-5.85,4.58,2.27,9.44,4,14.08,6.17,2.19,1.03,4.67,1.93,5.47,4.68-4.84,9.01-11.4,17.46-9.11,28.78,.24,1.18-.77,2.58-.71,3.85,.18,4.08-2.24,4.61-5.43,4.3-10.25-.98-19.68-3.77-26.69-11.97,0-.67,0-1.33,0-2,3.17-3.76,2.77-8.62,3.98-12.99,0-.66,.01-1.32,.02-1.99,.33-.67,.65-1.34,.98-2.01,0-.66,.02-1.32,.03-1.98,1.18-.16,1.84-.83,1.97-2.02Z"/>
      <path class="cls-1" d="M255.54,86.3c1.62-8.44,6.28-12.88,15.31-13.31,4.63-.22,9.27-.36,13.9-.48,2.66-.07,5.01,1,6.36,3.29,1.72,2.9,3.74,2.95,6.18,1.19,2.07-1.49,4.2-2.65,6.86-2.58,2.88,.07,3.66-2.17,3.98-4.29,.65-4.41,3.36-5.85,7.35-5.63,5.94,.32,11.12-3.51,17.07-3.01,.32,.59,.65,1.18,.97,1.77-3.89,.8-7.81,1.52-11.67,2.43-3.17,.75-4.36,3.21-4.91,6.19-.38,2.05,.54,3.24,2.26,3.86,5.44,1.99,10.9,3.88,16.36,5.81-.33,1.89-.65,3.79-.98,5.68-.76,.14-1.52,.28-2.28,.42-1.24-.44-2.49-.89-3.73-1.33-1.24-1.69-3-1.15-4.64-1.09,0,0-.27-.06-.27-.06-.2-.44-.29-1.01-.63-1.29-6.19-5.14-14.13-1.45-20.87-4-.41-.16-1.38,.8-1.92,1.39-1.32,1.44-2.54,2.97-3.8,4.46-1.05,.52-2.11,1.04-3.16,1.56-2.98-.13-4.48,1.88-4.2,4.25,.31,2.57,2.45,4.12,5.34,3.96l1.26,.12c-.92,2.53-3.15,3.66-5.27,4.89-6.76,3.99-7.65,6.14-5.64,13.5,1.9,4.87-2.38,4.28-4.74,5.38-2.31,0-4.63-.01-6.95-.02-.53-.19-1.07-.38-1.6-.57-.67-.09-1.34-.18-2.01-.28-6.63-.09-13.27-.17-19.9-.26-3.31-2.3-.78-5.24-.88-7.9,2.37,.21,4.81,1.99,5.02,3.48,.6,4.34,3.41,3.5,6.03,3.47,4.21-.05,8.16,.95,10.32-5.15,2.07-5.83,6.53-10.83,7.63-17.26,2.08-.8,4.16-1.6,6.24-2.4,7.34-1.9,1.21-7.12,2.53-10.55,.66-1.71-.62-3.18-2.19-4.02-.7-.37-1.58-.54-2.38-.56-4.62-.09-9.27-.37-13.77,1.08-3.28,1.06-6.11,2.59-6.59,6.5-1.83,.6-3.65,1.2-5.48,1.8-.17-.16-.34-.32-.5-.48Z"/>
      <path class="cls-1" d="M366.48,325.02c.33,0,.66,.01,.98,.01,.16,1.17,.83,1.84,2.01,1.98,3.07,.42,3,2.73,3.01,4.99-.9,11.3-5.76,21.33-10.3,31.42-2.43,5.4-3.74,5.47-8.27,1.43-1.01-.9-1.97-1.79-3.39-1.92,0-.66,0-1.32,0-1.98,.64-2.99,.64-5.82-2.01-7.99,0-.66,0-1.33-.01-1.99-1.1-3.1-1.07-6.69-3.97-9-.67-1-1.34-1.99-2-2.99-.13-2.18-.33-4.32-2.99-4.99-1.23-.62-1.89-1.62-1.98-3,2.96-3.51,1.32-8.16,2.97-11.99,.01-1.11,.08-2.2,1.01-2.99,1.95,.04,3.84-.04,5.68,1.1,5.97,3.7,12.44,6.28,19.28,7.89Z"/>
      <path class="cls-3" d="M294.52,368.64c-.24,2.37-1.37,3.73-3.38,4.1-2.01,.37-3.79,.44-4.69-2.27-1.29-3.9-4.25-6.36-7.73-8.67-3.97-2.64-7.88-5.92-8.16-11.49-.04-.79-.37-2.2-.71-2.25-6.1-.8-4.04-6.58-6.11-9.79-1.4-2.17-2.75-4.18-.64-6.71,.38-.45,.32-1.95-.09-2.27-3.55-2.78-.39-7.47-3.07-10.44-.16-.17-.12-.81,.04-.94,3.45-2.64,2.44-6.54,3.24-10.02,.59-2.58,1.15-4.5-.26-6.88-.63-1.06-.64-2.68,.81-3.52,1.16-.66,2.43-.32,3.19,.59,1.77,2.14,4.03,4.05,4.6,6.94,2.04,10.43,6.28,20.15,9.57,30.18,2.05,6.22,2.96,12.73,6.25,18.67,2.2,3.96,5.67,7.39,6.3,12.21,.13,.96,.6,1.87,.83,2.55Z"/>
      <path class="cls-4" d="M280.01,119.4c2.37-1.1,6.65-.52,4.74-5.38,2.87-4.08,5-8.49,5.64-13.51,2.12-1.23,4.35-2.36,5.27-4.89,1.33-.62,2.64,1.1,3.98,.03,7.11,4.03,13.53,8.93,18.85,15.19,.03,4.58-6.18,1.67-6.71,5.58,3.26,1.27,3.19,1.3,5.16,5.61,.47,1.04,1.69,1.49,2.96,1.27,.02,1.08,.03,2.17,.05,3.25-.47,.38-.94,.76-1.41,1.14-4.82,4.98-6.69,11.52-9.31,17.67-.25,.19-.47,.4-.67,.63-1.55-.73-3.07-1.37-3.35,1.26-.24,.03-.45,.13-.64,.29-.23-.2-.49-.31-.8-.31-3.24-4.96-6.34-10.02-9.78-14.83-2.72-3.81-6.34-6.21-11.4-4.83-.87-.06-1.73-.12-2.6-.18-1.99-.77-3.97-1.55-.94-3.63,1.82,2.49,4.53,2.79,7.18,2.46,6.95-.84,13.9-.14,20.85-.27,1.31-.02,2.63-.26,3.93-.49,1.63-.29,3.73-.5,3.65-2.62-.08-2.23-2.31-2.06-3.87-2.11-6.96-.23-13.93-.31-20.9-.52-3.51-.11-6.97-.03-10.25,1.46,.12-.76,.23-1.53,.35-2.29Z"/>
      <path class="cls-3" d="M248.68,110.38c.1,2.65-2.43,5.6,.88,7.9-2.6,1.19-6.17-1.34-8.16,2.14-.55,1.85-1.1,3.69-1.65,5.54-4.02-1.69-7.88,.78-11.87,.42-3.63-.33-4.08-.72-3.98-4.04,1.5,1.01,2.99,2.24,4.94,1.86,3.09-.61,6.99-.54,5.74-5.63-.28-2.98,1.63-5.4,2.1-8.19h0c1.32-.14,1.94-.89,1.92-2.2,0-.57-.01-1.14-.02-1.7,3.88-2.69,3.26-7.46,5.12-11.09,1.04-.8,2.19-1.55,1.7-3.17l.06-.06c1.48,.29,2.08-.7,2.54-1.81,.73-1.78,1.04-3.71-.57-5.05-2.69-2.25-4.98-5.85-9.32-4.19-5.87,2.23-11.81,4.03-18.09,4.59-1.64,.14-2.24,1.19-2.27,2.7-.91,.75-1.82,1.5-2.72,2.25-.73-.05-1.45-.11-2.18-.16-3.72-6.28-9.31-5.66-15.24-4.28-2.41,.56-5.47,.81-6.41-2.16-.98-3.09,1.78-4.77,4.16-5.14,9.18-1.42,18.4-4.75,27.66-.33,2.69,1.28,5.48,1.01,8.29,.52,3.25-.57,6.51-1.12,9.78-1.62,4.78-.72,7.71,1.25,8.42,6.1,.36,2.49,1.41,4.04,4.16,3.86,.58,.41,1.16,.81,1.74,1.22-.22,1.59-.44,3.18-.66,4.77-3.01,4.95-5.74,10.01-6.11,15.97,.03,.34,.05,.67,.08,1.01Z"/>
      <path class="cls-3" d="M333.51,63.24c-.32-.59-.65-1.18-.97-1.77,4.46-.35,8.61,.17,11.56,4.08,1.88,2.49,4.32,1.49,5.46-.09,3.61-5.02,9.23-5.34,14.32-6.44,4.65-1.01,7.03-5.69,12.12-6.09,3.61-.28,6.9,2.93,10.46,.55-.63,1.25-1.44,2.47-.87,3.99,0,0-.3,.28-.3,.28-4.09-.15-8.15-3.33-12.32,.09-1.47,1.21-3.2,1.53-3.3,4.24-.11,3.11-3.29,2.59-5.5,2.71-8.38,.47-10.87,2.31-12.32,9.25-.18,.88-.06,1.63,.55,2.29-.74,3.83-2.92,7.6-.52,11.58,7.86,3.51,15.92,6.29,24.61,6.83l-.04,3.67c-3.6,.71-6.04-2.17-9.16-3.02-5.26-1.42-10.47-2.47-15.87-.93-1.21-2.9-3.48-3.51-6.29-2.89-.96,.21-2.03,.56-1.87,1.78,.16,1.19,1.38,1.13,2.27,1.38-.04,1.24-.29,2.35-1.75,2.66-3.45,1.07-2.86,4.55-3.84,6.96-.76,1.87-1.38,3.27-3.44,3.67l-.11-.43c-1.04-1.91-.79-5.19-4.52-4.26,.14-2.88,1.39-5.5,2.72-7.86,1.68-2.97,1.8-5.51-.04-8.26,.33-1.89,.65-3.79,.98-5.68,.05-.65,.1-1.3,.14-1.95,1.59-1.43,3.06-2.93,4.05-4.87,2.96-5.83,1.18-9.36-5.24-10.28l.08,.08c-.17-.16-.36-.31-.55-.45-.19-.27-.36-.54-.51-.83Z"/>
      <path class="cls-3" d="M366.48,325.02c-6.84-1.61-13.31-4.19-19.28-7.89-1.83-1.14-3.72-1.05-5.68-1.1,.81-2.64,2.67-3.09,5.08-2.47,1.77,.46,4,1.25,5.14-.32,1.49-2.06-1.07-3.48-1.9-5.14-.8-1.61-3.37-2.68-1.34-5.04,7.01,8.2,16.44,11,26.69,11.97,3.19,.3,5.61-.23,5.43-4.3-.06-1.28,.95-2.67,.71-3.85-2.3-11.32,4.27-19.76,9.11-28.78,1.57,1.8,1.38,3.97,.13,5.5-6.44,7.87-5.99,17.52-7.02,26.72-.84,7.46-1.59,8.28-8.82,7.02-1.61-.28-3.31-.41-4.93-.23-5.72,.63-3.57,4.69-3.31,7.9Z"/>
      <path class="cls-3" d="M312.57,284.08c5.78,4.64,13.94,4.59,19.41,9.86,1.21,1.17,2.37,.74,3.46-.3,1.18-1.14,2.25-2.45,4.08-2.56-.03,4.64-4.87,6.41-6.23,10.42-.86,2.53-3.16,4.6-4.96,6.76-2.27,2.72-6.32,2.36-6.47-.73-.41-8.04-4.56-14.23-8.65-20.59-.5-.77-.44-1.9-.64-2.86Z"/>
      <path class="cls-3" d="M293.61,229.18c3.43,.1,6.25,2.11,9.42,3.04,3.11,.91,6.19,1.45,9.29,.48,2.88-.91,4.84-.07,6.25,2.46-1.65,.07-3.39-.17-4.93,.28-3.24,.95-5.79,2.56-4.58,6.76,1.09,3.78-.56,6.78-3.31,9.23-3.39,3.01-7.64,2.26-9.3-1.88-1.1-2.75-2.03-5.49-3.72-7.99-1.23-1.82-1.46-4.04-.23-6.13,1.14-1.95,1.18-4.1,1.12-6.26Zm6.24,9.98c-1.93,.1-4.38,.27-3.84,2.66,.62,2.77,2,5.82,5.49,6.15,2.21,.21,4.03-1.26,3.76-3.56-.35-2.99-2.08-5.15-5.41-5.25Z"/>
      <path class="cls-3" d="M318.57,235.16c1.72,.31,3.44,.62,5.16,.93,1.05,1.35,2.12,2.69,3.85,3.22,.15,3.83,3.7,4.18,5.95,5.9,1.59,1.22,4.49,2.17,3.08,4.76-1.2,2.19-3.57,.96-5.31,.04-3.31-1.75-7-2.05-10.55-2.44-4.02-.44-5.95,2.7-7.78,5.81-5.99,10.19-5.37,20.4-.4,30.7-5.27-2.32-9.38-13.44-6.49-20.57,2.98-7.35,4.12-16.04,12.89-19.72,1.64-.69,1.65-2.34,.92-3.88-.72-1.51-1.43-3.01-1.32-4.74Z"/>
      <path class="cls-3" d="M246.34,142.5c1.15,.32,3.65,.74,5.89,1.73,2.97,1.31,4.9,3.82,4.1,7.16-.88,3.69-2.23,7.31-3.72,10.81-1.23,2.89-3.33,3.81-5.6,.86-3.73-4.85-5.55-10.62-6.76-16.45-.58-2.79,1.7-4.48,6.08-4.11Z"/>
      <path class="cls-5" d="M239.75,125.95c.55-1.85,1.1-3.69,1.65-5.53,8.15-2.41,16.47-.75,24.71-1,4.33-.14,6.17,1.61,4.53,5.99l.06-.06c-.68,.36-1.36,.71-2.04,1.07l.07-.02c-2.33,.32-4.67,.65-7,.97-5.97,.02-11.94,.05-17.91,.07-1.35-.49-2.7-.99-4.06-1.48Z"/>
      <path class="cls-1" d="M243.81,127.44c5.97-.02,11.94-.05,17.91-.07,2.47,0,4.94,0,7.41,.01l1.44,.16c-1.23,6.63-5.11,9.34-11.48,8.15-4.23-.79-8.42-1.58-12.25-3.73-1.85-1.04-3.41-2.08-3.02-4.53Z"/>
      <path class="cls-1" d="M282.6,127.57c5.06-1.38,8.68,1.02,11.4,4.83,3.44,4.81,6.53,9.88,9.78,14.83-.73,.03-1.46,.06-2.19,.1-1.78-1.86-4.19-2.56-6.5-3.38-4.44-1.59-5.42-6.54-8.78-8.98-2.74-2-4.07-4.12-3.71-7.39Z"/>
      <path class="cls-3" d="M282.6,127.57c-.35,3.27,.97,5.39,3.71,7.39,3.36,2.45,4.34,7.39,8.78,8.98,2.31,.83,4.72,1.53,6.5,3.38-2.8,2.13-5.42,.1-7.91-.63-4.55-1.33-8.59-4.05-12.73-6.22-5.07-2.65-3.61-8.15-2.31-12.86,.45-.07,.91-.15,1.36-.22,.87,.06,1.73,.12,2.6,.18Z"/>
      <path class="cls-3" d="M350.52,362.93c1.42,.13,2.38,1.02,3.39,1.92,4.53,4.04,5.84,3.97,8.27-1.43,4.54-10.09,9.4-20.12,10.3-31.42,1.93,.47,2.08,1.91,1.84,3.49-.34,2.28-.48,4.64-1.22,6.79-2.59,7.6-5.33,15.15-8.17,22.66-1.18,3.12-2.8,6.52-6.6,6.62-3.56,.1-4.92-3.42-6.67-5.94-.54-.78-.78-1.78-1.15-2.68Z"/>
      <path class="cls-3" d="M223.91,118.67c-1.46-5.97-6.78-9.49-9.33-14.75-1.33-2.73-3.92-5.73,.05-8.55,1.36,6.33,2.83,12.58,10.01,15.04l2.08,.9c.19,3.85,2.05,6.28,5.96,6.96-2.92,.13-5.84,.26-8.76,.39Z"/>
      <path class="cls-3" d="M228.05,334.01c4.15-.04,9.36,5.15,9.31,9.08-.01,1.27-.79,1.7-1.86,1.82-1.73,.18-3.66,.06-4.08-1.87-.64-2.95-1.42-5.04-5.15-4.58-1.11,.13-2.45-1.39-2.14-2.85,.49-2.35,2.63-1.27,3.92-1.59Z"/>
      <path class="cls-6" d="M223.91,118.67c2.92-.13,5.84-.26,8.76-.39,.64,.09,1.28,.18,1.91,.27,1.25,5.09-2.64,5.02-5.73,5.63-1.96,.39-3.44-.85-4.94-1.86,0-1.22,0-2.44,0-3.65Z"/>
      <path class="cls-1" d="M224.63,110.42c-7.18-2.46-8.65-8.71-10.01-15.04,.03-.3,.06-.6,.08-.9,.43-.1,.86-.2,1.29-.3,1.01,.2,2.23-.2,2.88,1.01-.47,2.54,.12,4.75,1.53,6.98,1.64,2.61,2.84,5.49,4.23,8.25Z"/>
      <path class="cls-3" d="M184.79,117.38c-1.54-6.07-3.61-11.79-9.58-15.08-1.12-.62-2.25-1.39-2.41-2.88,7.61,1.72,14.15,9.97,14.99,18.92-.72-.05-1.44-.11-2.16-.16-.28-.26-.56-.53-.85-.79Z"/>
      <path class="cls-6" d="M280.01,127.39c-.45,.07-.91,.15-1.36,.22-2.69-.52-5.38-.76-8.08-.07-.48-.05-.96-.1-1.44-.16-.14-.33-.27-.66-.4-.98,0,0-.07,.02-.07,.02,1.16,.56,1.74,.01,2.04-1.07,0,0-.06,.06-.06,.06,2.81-1.2,2.61-3.62,2.44-6.03,2.32,0,4.64,.01,6.95,.02-.12,.76-.24,1.53-.35,2.28-.2,.69-.4,1.39-.61,2.09-3.03,2.08-1.05,2.85,.94,3.63Z"/>
      <path class="cls-1" d="M185.63,118.17c.72,.06,1.44,.11,2.16,.17,3.79,1.85,5.49,4.86,5.01,9.08-.44,.02-.88,.05-1.31,.07-.43-.14-.86-.27-1.29-.41-1.64-2.97-3.22-5.98-5.52-8.51,.31-.13,.63-.26,.94-.39Z"/>
      <path class="cls-3" d="M352.48,288.07c-1.21,4.36-.81,9.22-3.98,12.99-1.17-4.08,.79-10.46,3.98-12.99Z"/>
      <path class="cls-3" d="M340.51,319.02c-1.65,3.83-.01,8.48-2.97,11.99-1.74-5.02-.56-9.8,2.97-11.99Z"/>
      <path class="cls-3" d="M180.79,304.05c-.99,.05-1.98,.09-2.74,.88-.88,.92-1.62,2.34-3.22,1.26-.72-.49-.96-1.34-.71-2.21,.4-1.38,1.37-2.31,2.7-2.66,2.27-.59,3.98-.12,3.97,2.73h0Z"/>
      <path class="cls-3" d="M191.49,127.48c.44-.02,.88-.05,1.32-.07,1.29,2.88,3.35,5.5,2.95,8.94-3.01-2.06-2.85-5.72-4.33-8.55,0,0,.06-.32,.06-.32Z"/>
      <path class="cls-3" d="M344.52,341.99c2.9,2.3,2.88,5.9,3.97,9-3.85-1.88-3.57-5.59-3.97-9Z"/>
      <path class="cls-3" d="M348.5,352.97c2.65,2.16,2.65,5,2.01,7.99-1.24-2.52-3.2-4.86-2.01-7.99Z"/>
      <path class="cls-3" d="M339.52,334.01c2.66,.66,2.87,2.8,2.99,4.99-1.99-1.07-3.13-2.64-2.99-4.99Z"/>
      <path class="cls-6" d="M216,94.17c-.43,.1-.86,.2-1.29,.3-1.48-.94-1.99-2.33-1.88-4.02,.73,.05,1.46,.11,2.18,.16,.33,1.18,.66,2.37,.99,3.55Z"/>
      <path class="cls-3" d="M222.32,328.61c.45,.19,.98,.33,.98,.44-.03,.44-.22,.87-.34,1.31-.28-.12-.79-.21-.81-.37-.05-.43,.1-.88,.18-1.37Z"/>
      <path class="cls-3" d="M358.48,273.1c-.07,1.39-.74,2.39-1.98,3.01-.01-1.44,.23-2.72,1.98-3.01Z"/>
      <path class="cls-3" d="M355.47,280.08c-.13,1.19-.79,1.85-1.97,2.02,.14-1.18,.8-1.85,1.97-2.02Z"/>
      <path class="cls-3" d="M353.48,284.08c-.33,.67-.65,1.34-.98,2.01-1.2-1.41-.15-1.73,.98-2.01Z"/>
      <path class="cls-3" d="M138.35,245.1c-.21,.16-.43,.32-.64,.49-.08-.13-.26-.35-.24-.37,.19-.19,.41-.34,.62-.5,.08,.13,.17,.26,.25,.39Z"/>
      <path class="cls-3" d="M369.47,327.01c-1.18-.14-1.85-.81-2.01-1.98,1.19,.13,1.86,.8,2.01,1.98Z"/>
      <path class="cls-1" d="M255.37,88.64c-.58-.41-1.16-.81-1.74-1.22,.63-.37,1.27-.75,1.9-1.12,.17,.16,.33,.32,.5,.48,.29,.8,.28,1.5-.67,1.86Z"/>
      <path class="cls-4" d="M384.6,10.87c-.26,.36-.47,.95-.79,1.02-.64,.15-.7-.48-.6-.92,.18-.84,.52-1.53,1.56-.82-.07,.24-.12,.48-.16,.72Z"/>
      <path class="cls-5" d="M184.69,118.56c2.3,2.54,3.88,5.54,5.51,8.51-1.98,.19-3.97,.56-5.95,.55-35.5-.18-71.01,.44-106.48-1.31-1.44-.07-2.87-.66-4.27-1.11-.96-.31-1.9-.84-1.8-2.06,.09-1.09,.86-1.89,1.83-2.14,1.59-.41,3.29-.93,4.88-.77,9.95,.97,19.7-1.81,29.62-1.38,2.46,.11,4.94-.28,7.41-.44,22.76,0,45.51,0,68.27,0,.33,.05,.65,.1,.98,.15Z"/>
      <path class="cls-4" d="M115.44,118.41c-2.47,.16-4.95,.55-7.41,.44-9.92-.43-19.67,2.35-29.62,1.38-1.59-.16-3.29,.36-4.88,.77-.97,.25-1.74,1.04-1.83,2.14-.1,1.22,.84,1.75,1.8,2.06,1.4,.45,2.83,1.04,4.27,1.11,35.48,1.75,70.99,1.13,106.48,1.31,1.98,0,3.96-.36,5.95-.55,.43,.14,.86,.27,1.29,.41,0,0-.06,.32-.06,.32-9.9,1.49-19.94,1.02-29.8,.79-28.54-.67-57.1,.63-85.62-1.12-1.16-.07-2.32-.19-3.47-.28-1.35-.81-2.8-.73-4.27-.41-1.22-.03-2.44-.06-3.65-.09,0,0-.23,0-.23,0-.9,.1-1.79,.19-2.68,.29-1.46-.56-2.92-.67-4.38,.04-8.24-.15-16.48-.31-24.72-.46-.7-.87-1.74-.79-2.7-.95-1.59-.27-3.72-.19-3.54-2.48,.15-1.95,2.16-2.43,3.76-2.59,2.94-.31,5.92-.27,8.89-.44,7.53-.45,15.12,.83,22.61-.8,16.12-.37,32.23-.75,48.35-1.1,1.82-.04,3.64,.14,5.46,.22Z"/>
      <path class="cls-6" d="M61.63,119.28c-7.49,1.64-15.08,.35-22.61,.8-2.96,.18-5.94,.13-8.89,.44-1.6,.17-3.61,.65-3.76,2.59-.18,2.29,1.96,2.21,3.54,2.48,.96,.16,2,.08,2.7,.95-3.76,.99-7.5,1.14-11.16-.33-1.65-.66-2.84-2.05-2.65-3.84,.2-1.94,1.88-2.55,3.65-2.74,12.59-1.35,25.22-1.13,37.84-.98,.44,0,.88,.41,1.32,.62Z"/>
      <path class="cls-3" d="M20.64,246.6c-1.61-.87-2.28-2.33-2.3-4.02-.02-1.3,.89-2.17,2.18-2.15,1.57,.03,2.49,1.02,1.97,2.59-.41,1.24,.14,3.09-1.85,3.57Z"/>
      <path class="cls-3" d="M46.85,241.78c2.05-2.17,3.19-3.71,5.32-4.12q-1.01,2.88-5.32,4.12Z"/>
      <path class="cls-3" d="M39.03,251.15c-1.33-.37-3.1-.27-3.26-2.15-.07-.82,.96-1.37,1.75-1.27,2.24,.29,1.21,2.18,1.51,3.42h0Z"/>
      <path class="cls-3" d="M96.93,223.19c.14-1.25-.03-2.78,1.91-2.66,.85,.05,1.68,.65,1.4,1.55-.54,1.68-2.14,.89-3.3,1.12,0,0,0,0,0,0Z"/>
      <path class="cls-6" d="M57.34,127.01c1.45-.71,2.92-.6,4.38-.04-1.45,1.64-2.91,1.5-4.38,.04Z"/>
      <path class="cls-3" d="M65.62,241.16c-.42-.46-.69-.74-.95-1.03,.32-.22,.62-.53,.98-.62,.17-.05,.67,.36,.64,.46-.1,.36-.36,.68-.67,1.2Z"/>
      <path class="cls-6" d="M68.28,126.78c1.47-.33,2.91-.4,4.27,.41-1.45,.16-2.9,.28-4.27-.41Z"/>
      <path class="cls-3" d="M39.03,251.15c1.18,.15,1.85,.81,2,2h0c-1.18-.15-1.85-.82-2-2,0,0,0,0,0,0Z"/>
      <path class="cls-3" d="M41.03,253.14c.61,.15,1.33,.16,1.36,1.04,0,.11-.21,.32-.31,.31-.88-.03-.89-.75-1.04-1.36,0,0,0,0,0,0Z"/>
      <path class="cls-2" d="M184.69,118.56c-.33-.05-.65-.1-.98-.15,.36-.34,.72-.68,1.08-1.02,.28,.26,.56,.53,.85,.79-.32,.13-.63,.26-.94,.39Z"/>
      <path class="cls-6" d="M64.4,126.69s.24,0,.23,0-.23,0-.23,0Z"/>
      <path class="cls-1" d="M183.52,205.62c1.78,.6,2.81,.26,3.81-.51,6.5-5,14.28-8.25,19.82-14.59,1.39-1.59,3.28-1.65,4.92-.28,4.63,3.88,8.04,8.71,9.58,14.52,1.25,4.7,2.68,9.07,5.85,12.94,2.9,3.54,2.46,8.49,4.15,12.63,.97,2.38,1.76,4.73,4.22,5.85,3.46,1.58,3.95,5.2,5.45,8,1.24,2.32-1.72,5.54-3.43,4.14-3.6-2.94-7.66-1.47-11.45-2.01-3.32-.47-6.86-2.9-10.3,.54-.97,.97-3.4,.33-3.03-2.29,.34-2.38-.87-2.49-2.66-1.91-6.66,2.13-10.23,.99-13.94-5.26-1.98-3.33-3.61-3.81-6.49-1.16-2.14,1.97-3.97,2.34-4.45-1.62-.3-2.42-2.51-4.22-2.96-6.78-.3-1.69-1.74-1.05-2.85-.85-2.9,.52-3.68-1.43-4.39-3.63-.9-2.79,1.22-2.48,2.77-3.4,3.85-2.26,2.09-6.2,1.89-9.5-.19-3.11-.7-6.06,3.5-4.85Z"/>
      <path class="cls-2" d="M153.36,247.38c1.36,.15,2.25,.88,2.79,1.96,.55,1.11,.01,2-.99,2.44-3.01,1.32-2.68,3.42-1.4,5.71,.76,1.36,1.02,2.61-.71,3.22-1.54,.54-1.69-.85-2.31-1.86-1.72-2.8-1.26-5.68-.81-8.61,.31-2,1.71-2.68,3.43-2.86Z"/>
      <path class="cls-1" d="M143.32,179.75c-1.24,.01-1.67-.87-1.96-1.85-.09-.3-.1-.66-.05-.97,.3-1.7,6.35-6.32,7.99-6.16,.76,.08,1.21,.43,1.22,1.2,.02,1.15-6.11,7.74-7.2,7.78Z"/>
      <path class="cls-1" d="M127.38,200.41c2.65,.95,4.86,1.56,6.89,2.54,1.01,.49,1.77,1.86,1.19,2.98-.88,1.71-2.01,.33-2.79-.27-1.82-1.38-5.17-1.01-5.28-5.25Z"/>
      <path class="cls-1" d="M134.28,196.68c-.22,.7-.71,1.13-1.44,1.05-.9-.09-1.65-.61-1.24-1.58,.17-.41,1.02-.7,1.58-.73,.69-.04,1.16,.46,1.1,1.26Z"/>
      <path class="cls-2" d="M135.82,237.4c-.39,.48-.64,.79-.88,1.09-.26-.29-.61-.55-.75-.89-.07-.16,.28-.71,.4-.7,.36,.03,.7,.26,1.24,.49Z"/>
      <path class="cls-5" d="M323.27,234.48c-1.28-1.87-.13-3.72,.05-5.57,1.97-1.5,2.51-3.86,3.48-5.93,5.88-12.47,11.62-25.01,17.54-37.47,3.81-8.02,6.36-9.3,14.81-8.04,1.82,1.39,3.64,2.78,5.46,4.16-.09,.79,.03,1.45,1.02,1.52,0,0-.09-.03-.09-.03,.76,1.95,2.5,3.77,1.2,6.04-3.77,6.57-3.31,13.7-3.08,20.85,.09,2.92-.86,5.45-2.25,8.27-3.07,6.2-9.48,8.88-13.07,14.3-1.51-.09-3.01-.17-4.52-.26-4.89-6.24,1.61-8,4.64-11.34-8.58,4.53-16.56,9.6-25.19,13.49Zm27.07-16.45c4.96-1.93,4.99-6,4.71-11.55-1.85,4.65-3.24,8.13-4.62,11.63-.08,.11-.18,.21-.24,.33-.03,.06,0,.14,.01,.22,.05-.21,.09-.42,.14-.62Z"/>
      <path class="cls-4" d="M348.34,232.59c3.59-5.42,10-8.09,13.07-14.3,1.39-2.82,2.34-5.35,2.25-8.27-.22-7.15-.68-14.29,3.08-20.85,1.3-2.27-.43-4.1-1.2-6.04,3.13,.12,5.29,1.87,7.14,4.18,1.54,2.94,1.83,5.67,.02,8.83-2.55,4.46-2.5,9.61-2.1,14.56,.68,8.57-3.04,15.02-9.12,20.49-1.6,1.44-3.24,2.84-4.74,4.39-4.35,4.51-4.35,4.54-7.45-.73-.41-.7-.64-1.5-.96-2.26Z"/>
      <path class="cls-4" d="M323.27,234.48c8.62-3.89,16.61-8.96,25.19-13.49-3.03,3.33-9.53,5.1-4.64,11.34-5.47,2.19-10.29,5.89-16.23,6.99-1.74-.53-2.8-1.87-3.85-3.22-.15-.54-.31-1.08-.46-1.62Z"/>
      <path class="cls-6" d="M311.45,270.94c.73-5.12,1.09-10.09,4.71-14.04,1.47-1.61,2.14-2.01,3.44,.42,3.68,6.86,.36,12.9-2.1,18.83-1.2,2.9-3.96,2.05-5.28-.55-.7-1.39-.55-3.21-.76-4.67Z"/>
      <path class="cls-6" d="M359.15,177.47c-8.45-1.26-11,.02-14.81,8.04-5.92,12.46-11.66,24.99-17.54,37.47-.97,2.07-1.52,4.43-3.48,5.93-.96-2.75,.67-5.15,1-7.73,.22-1.73,.81-3.55-.73-5.56-1.4,1.95-3.19,3.58-3.89,5.58-1.52,4.34-6.26,3.9-8.85,6.54-.25,.26-1.21,.29-1.4,.06-3.51-4.27-9.48-5.34-12.79-9.83-.58-.79-.88-1.96-1.63-2.4-4.51-2.65-2.42-5.68-.73-8.81,2.05-3.78,5.69-3.24,8.23-1.9,3.12,1.63,4.04,.52,5.27-1.85,1.49-2.85,3.8-4.07,6.98-2.78,3.54,1.43,5.3-.41,7.11-3.23,7.29-11.37,7.38-11.33-.24-22.76-.83-1.24-1.76-2.41-1.93-3.96,2.69-.41,3.71,1.56,4.93,3.36,2.59,3.83,5.2,7.66,7.95,11.38,.61,.83,1.94,3,2.83,1.26,1.76-3.46,3.71-7.16,2.87-11.33-.72-3.61-3.62-4.98-6.79-5.66-3.23-.69-6.48-1.18-9.03-3.54,1.59-2.46,5.92-1.52,6.5-5.23,1.71-.57,4.02,.27,4.96-2.11,5.22,7.35,9.73,7.32,14.13-.1,4.44-1.23,7.95-7.48,6.08-12.99-1.3-3.83,.22-6.02,1.98-8.64,1.01-1.5,1.98-3.04,2.92-4.59,3.41-5.64,4.76-12.29,9.11-17.55,2.27-2.74,.22-7.29-3.13-8.99-5.15-2.63-10.27-5.32-15.41-7.99,.08-3.02-1.49-3.67-4.09-2.83-.89-.26-2.11-.2-2.27-1.39-.16-1.22,.91-1.57,1.87-1.78,2.81-.62,5.08,0,6.29,2.89,3.01,3.96,7.78,5.24,11.88,7.37,7.34,3.81,8.49,6.15,6.06,13.88-2.73,8.68-6.68,16.76-11.39,24.48-2.16,3.54,.04,7.56-1.72,11.04-1.5,2.24-3.44,4.37-2.04,8.02,2.71-2.4,4.46-4.81,5.27-7.89,.89-1.14,1.57-2.35,3-3.14,2.55-1.41,1.69,.67,1.98,1.64-4.88,2-5.8,6.43-6.64,10.89-.58,.59-1.15,1.18-1.73,1.76-1.86,3.7-.9,5.5,4.42,8.28,.11,.16,.21,.32,.32,.48-3.81,3.22-5.61-.63-6.71-2.65-1.98-3.65-3.74-5.16-7.39-2.23-.59,.47-1.56,.66-2.35,.65-3.8-.02-4.27,1.69-3.38,5.09,1.7,6.53,1.51,6.6,7.29,3.38,3.31-1.85,6.76-1.11,10.14-.52,1.19,.21,1.06,1.46,.71,2.47Zm-16.93,4.43c-2.81,1.81-3.69,3.34-3.03,6.2,1.92-1.59,2.75-3.11,3.03-6.2Z"/>
      <path class="cls-4" d="M357.83,160.76c.84-4.47,1.76-8.89,6.64-10.89,1.01,.44,2.02,.89,3.03,1.33,.51,1.13,1.51,1.43,2.57,1.94,2.57,1.24,5.98,2.43,5.5,5.97-.42,3.12-.53,7.2-5.57,7.25-1.36,.01-1.59,1.44-1.66,2.63-2.28,.99-4.4-.14-6.58-.47-.29-.24-.58-.48-.87-.72,.08-2.82,3.31-7.01-3.05-7.04Z"/>
      <path class="cls-1" d="M376.46,98.41c.01-1.22,.02-2.45,.04-3.67,.65-.13,1.29-.27,1.94-.4,1.65,1.66,3.39,.86,5.02,.07,4.24-2.05,6.69-.19,7.82,3.76,.51,1.79,.74,2.53,3,2.76,3.29,.33,3.99,3.43,4.25,6.35-6.46,3.35-10.66-.11-13.5-5.23-2.15-3.87-6.16-1.49-8.56-3.65Z"/>
      <path class="cls-6" d="M390.11,128.2c-.98,.13-1.96,.26-2.93,.39-2-.45-4.42,.72-5.96-1.52,.19-.45,.26-1.03,.59-1.33,2.12-1.99,5.23-3.53,2.18-7.22-.65-.79,.41-1.76,1.47-2.07,1.2-.35,2.36-1.22,3.6,.07,1.91,1.96,3.92,3.82,5.89,5.73,.38,3.61-1.73,5.18-4.84,5.96Z"/>
      <path class="cls-1" d="M394.94,122.24c-1.97-1.9-3.98-3.77-5.89-5.73-1.25-1.28-2.4-.41-3.6-.07-1.06,.31-2.12,1.28-1.47,2.07,3.05,3.68-.06,5.23-2.18,7.22-.33,.31-.4,.88-.59,1.34-1.56-2.33-.02-5.38-1.78-7.66,1.61-1.85,2.14-4.54,4.38-5.89,4.46-2.67,11.8,1.94,12.14,7.59-.34,.38-.68,.76-1.02,1.13Z"/>
      <path class="cls-3" d="M379.44,119.4c1.76,2.29,.21,5.34,1.78,7.66,1.55,2.24,3.96,1.07,5.96,1.52-3.78,1.69-7.8,.23-11.65,.91-.89,.16-1.77,.05-1.85-1-.06-.77,.05-1.8,.52-2.31,1.64-1.77,.95,.76,1.56,.94,1.86,.57,2.15-.95,2.51-2.08,.57-1.83-.38-4,1.17-5.65Z"/>
      <path class="cls-3" d="M359.49,151.37c-.82,3.08-2.56,5.49-5.27,7.89-1.4-3.65,.54-5.78,2.04-8.02,1.08,.05,2.16,.09,3.23,.14Z"/>
      <path class="cls-4" d="M394.94,122.24c.34-.38,.68-.76,1.02-1.13,.62,6.98-.98,8.92-5.86,7.1,3.11-.78,5.22-2.36,4.84-5.96Z"/>
      <path class="cls-4" d="M351.88,87.9c-2.41-3.97-.22-7.74,.52-11.58,3.62-6.31,9.54-7.63,15.75-5.91,6.16,1.7,11.33,5.38,13.2,12.22,.25,.9,1.01,1.65,1.54,2.47-4.42,.11-8.84,.17-13.26,.33-5.99,.22-12.13-.5-17.74,2.47Z"/>
      <path class="cls-5" d="M351.88,87.9c5.61-2.97,11.75-2.25,17.74-2.47,4.42-.16,8.84-.22,13.26-.33,1.2,.67,3.16,.09,3.52,2.17,.34,1.99-.97,3.21-2.29,4.11-1.75,1.2-3.77,1.99-5.68,2.96-.65,.13-1.29,.27-1.94,.4-8.68-.54-16.75-3.32-24.61-6.83Z"/>
      <path class="cls-1" d="M387.38,63.47c-1.55,2.06-3.1,4.13-4.93,6.56-1.61-3.34-2.55-6.16,1.42-8.25,1.17,.56,2.34,1.13,3.51,1.69Z"/>
      <path class="cls-5" d="M387.38,63.47c-1.17-.56-2.34-1.13-3.51-1.69-1.11-1.91,1.16-2.62,1.42-4.04,0,0,.3-.28,.3-.28,2.87,1.32,1.37,3.95,1.79,6.01Z"/>
      <path class="cls-2" d="M194.47,386.69c.06,1.31-.44,1.93-1.36,1.9-1.31-.04-2.06-.9-2.07-2.17,0-1.02,.44-2,1.65-1.89,1.43,.12,1.38,1.54,1.78,2.17Z"/>
      <path class="cls-4" d="M360.52,170.81c-5.32-2.78-6.28-4.59-4.42-8.28,.11,3.07,1.07,5.59,4.3,6.65,.17,.18,.34,.36,.52,.53-.13,.37-.26,.74-.39,1.11Z"/>
      <path class="cls-4" d="M361.75,168.52c-.28,.39-.56,.79-.84,1.18-.17-.17-.35-.35-.51-.53,.16-.46,.32-.92,.48-1.37,.29,.24,.58,.48,.87,.72Z"/>
      <path class="cls-4" d="M365.63,183.16c-.99-.07-1.11-.73-1.02-1.52,.75,.23,1.33,.58,1.02,1.52Z"/>
      <path class="cls-4" d="M349.63,97.57c5.13,2.67,10.25,5.36,15.41,7.99,3.35,1.71,5.39,6.25,3.13,8.99-4.35,5.26-5.7,11.91-9.11,17.55-.94,1.55-1.91,3.09-2.92,4.59-1.77,2.62-3.28,4.81-1.98,8.64,1.87,5.51-1.64,11.75-6.08,12.99-4.72-1.67-9.43-1.41-14.13,.1-.94,2.38-3.26,1.54-4.96,2.11-2.32-1.77-3.99-4.19-6.7-5.69-2.15-1.19-3.22-4.34-2.33-6.64,1.65-4.28,3.32-9.09,6.48-12.11,2.92-2.8,2.07-4.15,.4-6.39,.4-.87,.74-1.78,1.22-2.61,3.48-6.07,8.29-11.54,8.47-19.07,2.05-.4,2.67-1.8,3.44-3.67,.98-2.4,.38-5.88,3.84-6.96-.7,1-.27,1.83,.37,2.64-.14,2.9-2.62,5.41-1.41,8.53,4,10.34-1.72,17.6-8.11,24.34-3.67,3.88-3.98,4.6,.42,8.43,1.6,1.66,2.37,5.25,5.02,4.5,3.31-.94,2.2-4.59,2.32-7.25,.08-1.77,.21-3.6-1-5.14,2.41-11.21,4.81-22.41,7.22-33.62,.34-.75,.68-1.51,1.02-2.26Zm-25.1,54.89c5.68-4.71,5.1,2.27,7.77,3.49-2.23-2.54,.25-4.03,1.43-5.87-3.47,.04-6.47-.17-9.2,2.38Z"/>
      <path class="cls-6" d="M336.52,108.02c-.18,7.53-4.99,13-8.47,19.07-.48,.83-.81,1.74-1.22,2.61-2.84,.15-4.53-2.21-6.88-3.14-.01-1.08-.03-2.17-.05-3.25,3.46-5.04,5.77-10.53,6.55-16.64,.53-4.17,.88-8.83,4.34-11.4,3.37-2.5,3.6-4.56,1.48-7.62,.76-.14,1.52-.28,2.28-.42,1.85,2.75,1.73,5.29,.04,8.26-1.34,2.36-2.58,4.98-2.73,7.86-1.22,2.76-1.04,5.57-.49,9.3,1.77-2.33,3.16-3.96,5.01-5.05l.11,.43Zm-12.09,18.81c.77-1.42,2.16-2.22,1.29-3.9-.12-.23-1.01-.36-1.25-.17-1.36,1.06-1.29,2.32-.04,4.07Z"/>
      <path class="cls-5" d="M322.48,165.77c2.55,2.36,5.8,2.85,9.03,3.54,3.17,.68,6.07,2.05,6.79,5.66,.83,4.17-1.11,7.87-2.87,11.33-.88,1.74-2.22-.43-2.83-1.26-2.75-3.72-5.36-7.54-7.95-11.38-1.22-1.8-2.24-3.78-4.93-3.36-1.84-3.19,.86-3.61,2.76-4.52Z"/>
      <path class="cls-6" d="M309.24,145.36c2.62-6.14,4.49-12.68,9.31-17.67-2.12,6.41-3.52,13.19-9.31,17.67Z"/>
      <path class="cls-6" d="M305.22,147.25c.28-2.63,1.8-1.99,3.35-1.26-.69,1.57-2,1.46-3.35,1.26Z"/>
      <path class="cls-5" d="M332.29,87.65c2.12,3.06,1.88,5.11-1.48,7.62-3.46,2.57-3.81,7.24-4.34,11.4-.78,6.11-3.09,11.6-6.55,16.64-1.26,.22-2.48-.24-2.95-1.27-1.97-4.31-1.9-4.34-5.16-5.61,.53-3.91,6.74-1,6.71-5.58,1.35-3.14,2.7-6.29,4.05-9.43,0,0,.1-.11,.1-.11l-.11,.13c-2.38-1.24,.35-5.53-3.26-5.84-6.54-.55-13.1-1.43-19.64,.06-1.33,1.07-2.65-.65-3.98-.03-.42-.04-.84-.08-1.26-.12-2.91-2.39-3.39-5.11-1.14-8.21,1.05-.52,2.11-1.04,3.16-1.56,9.06-.83,18.13-.81,27.21-.56,0,0,.27,.06,.27,.06,1.34,1.26,2.97,1.26,4.65,1.09,1.24,.44,2.49,.89,3.73,1.33Z"/>
      <path class="cls-6" d="M248.68,110.38c-.03-.34-.05-.67-.08-1.01,3.74-4.51,5.73-9.85,7.37-15.37,7.17,1.91,14.44,1.25,21.71,.92-1.11,6.43-5.57,11.42-7.63,17.26-2.16,6.1-6.11,5.1-10.32,5.15-2.61,.03-5.42,.88-6.03-3.47-.21-1.49-2.65-3.28-5.02-3.48Z"/>
      <path class="cls-5" d="M277.68,94.93c-7.26,.33-14.54,.98-21.71-.92-.42-.2-.84-.4-1.26-.6,.22-1.59,.44-3.18,.66-4.77,.95-.36,.96-1.05,.67-1.86,1.83-.6,3.65-1.2,5.48-1.8,5.72-.01,11.45-.14,17.17,0,6.55,.15,7.4,1.49,5.22,7.55-2.08,.8-4.16,1.6-6.24,2.4Z"/>
      <path class="cls-6" d="M283.91,92.53c2.18-6.06,1.33-7.4-5.22-7.55-5.72-.13-11.44,0-17.17,0,.47-3.91,3.31-5.44,6.59-6.5,4.5-1.45,9.15-1.17,13.77-1.08,.8,.02,1.68,.19,2.38,.56,1.57,.84,2.85,2.31,2.19,4.02-1.32,3.43,4.81,8.65-2.53,10.55Z"/>
      <path class="cls-6" d="M335.69,79.6c-.05,.65-.1,1.3-.14,1.95-5.46-1.93-10.92-3.83-16.36-5.81-1.72-.63-2.64-1.81-2.26-3.86,.56-2.98,1.74-5.44,4.91-6.19,3.87-.92,7.78-1.63,11.67-2.43,.15,.28,.32,.56,.51,.83,.25,.05,.44,.2,.55,.45,0,0-.08-.08-.08-.08,.03,.65,.06,1.31,.1,1.96-2.81,.93-5.69,1.71-8.42,2.84-2.89,1.19-3.09,2.98-.21,4.46,2.93,1.51,5.85,3.17,9.24,3.54l.5,2.36Z"/>
      <path class="cls-6" d="M323.64,85.17c-9.08-.25-18.15-.27-27.21,.56,1.26-1.49,2.48-3.02,3.8-4.46,.54-.59,1.51-1.54,1.92-1.39,6.74,2.55,14.67-1.14,20.87,4,.33,.28,.42,.85,.63,1.29Z"/>
      <path class="cls-6" d="M290.4,100.51c-.65,5.02-2.77,9.42-5.64,13.51-2.01-7.37-1.12-9.52,5.64-13.51Z"/>
      <path class="cls-4" d="M273.07,119.38c.16,2.4,.37,4.83-2.44,6.03,1.65-4.38-.2-6.13-4.53-5.99-8.24,.26-16.56-1.4-24.71,1,2-3.48,5.57-.96,8.16-2.14,6.63,.09,13.27,.17,19.9,.26,.67,.09,1.34,.18,2.01,.28,.53,.19,1.07,.38,1.6,.57Z"/>
      <path class="cls-6" d="M293.27,87.29c-2.25,3.1-1.77,5.83,1.14,8.21-2.89,.16-5.02-1.39-5.34-3.96-.29-2.37,1.22-4.38,4.2-4.25Z"/>
      <path class="cls-6" d="M328.56,86.32c-1.67,.17-3.31,.16-4.65-1.09,1.65-.06,3.41-.6,4.65,1.09Z"/>
      <path class="cls-6" d="M271.47,118.81c-.67-.09-1.34-.19-2.01-.28,.67,.09,1.34,.18,2.01,.28Z"/>
      <path class="cls-5" d="M279.06,123.76c.2-.7,.41-1.4,.61-2.09,3.27-1.48,6.73-1.55,10.24-1.45,6.97,.21,13.94,.28,20.9,.52,1.56,.05,3.79-.12,3.87,2.11,.08,2.11-2.02,2.32-3.65,2.62-1.3,.23-2.62,.47-3.93,.49-6.95,.12-13.9-.58-20.85,.27-2.65,.32-5.36,.02-7.18-2.46Z"/>
      <path class="cls-6" d="M322.56,101.41c-1.35,3.14-2.7,6.29-4.05,9.43-5.32-6.26-11.74-11.16-18.85-15.19,6.54-1.49,13.1-.62,19.64-.06,3.61,.31,.87,4.59,3.26,5.84v-.02Z"/>
      <path class="cls-6" d="M224.63,110.42c-1.39-2.76-2.59-5.65-4.23-8.25-1.4-2.23-2-4.44-1.53-6.98,7.42-.28,14.86,.54,22.26-.59,.56,2.09-.67,3.73-1.32,5.53-.73,2.02-2.56,3.88-1.24,6.32,0,.57,.01,1.14,.02,1.71-1.15,.3-1.83,1-1.92,2.21,0,0,0-.01,0-.01-3.25,1.06-6.62,.97-9.97,.96l-2.08-.9Z"/>
      <path class="cls-5" d="M241.13,94.59c-7.39,1.13-14.84,.31-22.26,.59-.65-1.22-1.87-.81-2.88-1.01-.33-1.18-.66-2.37-.99-3.55,.91-.75,1.82-1.5,2.72-2.25,7.23-1.4,14.45-3.01,21.86-2.91,5.47,.07,6.5,1.38,5.85,6.68,0,0-.06,.06-.06,.06-1.55,.45-3.24,.64-4.1,2.31l-.15,.09Z"/>
      <path class="cls-6" d="M245.44,92.13c.65-5.3-.39-6.61-5.85-6.68-7.41-.09-14.63,1.52-21.86,2.91,.03-1.51,.64-2.56,2.27-2.7,6.28-.55,12.23-2.36,18.09-4.59,4.34-1.65,6.64,1.95,9.32,4.19,1.61,1.35,1.3,3.27,.57,5.05-.46,1.11-1.06,2.1-2.54,1.81Z"/>
      <path class="cls-1" d="M226.71,111.32c3.36,.01,6.72,.1,9.97-.96-.47,2.79-2.38,5.21-2.1,8.19-.64-.09-1.28-.18-1.91-.27-3.91-.67-5.77-3.11-5.96-6.96Z"/>
      <path class="cls-1" d="M254.71,93.4c.42,.2,.84,.4,1.26,.6-1.64,5.51-3.63,10.86-7.37,15.37,.37-5.96,3.1-11.02,6.11-15.97Z"/>
      <path class="cls-1" d="M238.57,106.45c-1.32-2.44,.51-4.3,1.24-6.32,.65-1.81,1.88-3.45,1.32-5.53,0,0,.15-.09,.15-.09,.8,.29,1.6,.57,2.4,.86-1.86,3.63-1.23,8.4-5.12,11.09Z"/>
      <path class="cls-6" d="M243.69,95.36c-.8-.29-1.6-.57-2.4-.86,.86-1.67,2.56-1.86,4.1-2.31,.48,1.62-.66,2.36-1.7,3.17Z"/>
      <path class="cls-1" d="M236.67,110.37c.09-1.21,.77-1.92,1.92-2.21,.02,1.31-.6,2.06-1.92,2.21Z"/>
      <path class="cls-4" d="M334.59,66.4c-.03-.65-.06-1.31-.1-1.96,6.42,.92,8.2,4.46,5.24,10.28-.99,1.95-2.46,3.45-4.05,4.87-.16-.79-.33-1.57-.49-2.36-.12-3.62,1.5-7.33-.61-10.83Z"/>
      <path class="cls-1" d="M336.41,107.6c-1.85,1.09-3.24,2.71-5.01,5.05-.56-3.74-.73-6.54,.49-9.3,3.73-.94,3.48,2.35,4.52,4.26Z"/>
      <path class="cls-1" d="M349.63,97.57c-.34,.75-.68,1.51-1.02,2.25-1.5-.39-2.98-.33-4.44,.21-.64-.81-1.07-1.64-.37-2.64,1.46-.31,1.71-1.42,1.75-2.66,2.6-.84,4.17-.19,4.09,2.84Z"/>
      <path class="cls-4" d="M334.57,64.52c-.12-.24-.3-.39-.55-.45,.2,.14,.38,.29,.55,.45Z"/>
      <path class="cls-1" d="M299.84,239.16c3.34,.1,5.07,2.26,5.41,5.25,.27,2.3-1.55,3.77-3.76,3.56-3.5-.33-4.87-3.38-5.49-6.15-.54-2.39,1.91-2.55,3.84-2.66Z"/>
      <path class="cls-4" d="M268.72,126.4c.13,.33,.27,.66,.4,.98-2.47,0-4.94,0-7.41-.01,2.34-.32,4.67-.65,7.01-.97Z"/>
      <path class="cls-4" d="M270.69,125.35c-.3,1.08-.87,1.63-2.04,1.07,.68-.36,1.36-.71,2.04-1.07Z"/>
      <path class="cls-4" d="M350.42,218.1c1.39-3.49,2.78-6.98,4.63-11.62,.28,5.55,.25,9.61-4.71,11.55l.08,.07Z"/>
      <path class="cls-4" d="M350.34,218.03c-.05,.21-.09,.42-.14,.62,0-.07-.04-.16-.01-.22,.06-.12,.16-.22,.23-.33,0,0-.08-.08-.08-.08Z"/>
      <path class="cls-5" d="M333.94,158.43c4.7-1.51,9.41-1.77,14.13-.1-4.4,7.42-8.91,7.45-14.13,.1Z"/>
      <path class="cls-5" d="M360.88,167.8c-.16,.46-.32,.92-.48,1.37-3.23-1.06-4.19-3.58-4.3-6.65,.57-.59,1.15-1.17,1.73-1.76,6.36,.03,3.14,4.22,3.05,7.04Z"/>
      <path class="cls-1" d="M342.22,181.9c-.28,3.09-1.11,4.61-3.03,6.2-.66-2.86,.22-4.39,3.03-6.2Z"/>
      <path class="cls-6" d="M344.16,100.03c1.46-.54,2.94-.6,4.44-.21-2.41,11.21-4.81,22.42-7.22,33.62-2.5,2.31-3.02,6.22-6.33,7.89-4.4-3.84-4.09-4.56-.42-8.43,6.39-6.74,12.11-14,8.11-24.34-1.21-3.12,1.27-5.63,1.41-8.53Z"/>
      <path class="cls-1" d="M335.05,141.34c3.31-1.67,3.83-5.57,6.33-7.89,1.21,1.54,1.08,3.37,1,5.14-.12,2.66,.99,6.3-2.32,7.25-2.64,.75-3.42-2.84-5.02-4.5Z"/>
      <path class="cls-5" d="M324.52,152.47c2.73-2.55,5.73-2.34,9.2-2.38-1.18,1.84-3.66,3.33-1.43,5.87-2.68-1.23-2.09-8.2-7.77-3.49Z"/>
      <path class="cls-1" d="M324.42,126.84c-1.25-1.75-1.32-3,.04-4.07,.25-.19,1.14-.06,1.25,.17,.86,1.68-.53,2.48-1.29,3.9Z"/>
      <polygon class="cls-6" points="322.55 101.43 322.65 101.3 322.55 101.41 322.55 101.43"/>
      <path class="cls-5" d="M334.59,66.4c2.1,3.5,.49,7.22,.61,10.83-3.39-.37-6.3-2.03-9.24-3.54-2.88-1.48-2.67-3.26,.21-4.46,2.73-1.13,5.61-1.91,8.42-2.84Z"/>
    </g>
  </g>
</svg>